<mxfile host="app.diagrams.net" modified="2021-09-12T13:10:38.828Z" agent="5.0 (Macintosh; Intel Mac OS X 10_15_7) AppleWebKit/605.1.15 (KHTML, like Gecko) Version/14.1.2 Safari/605.1.15" etag="nfIMeTcnXiKnB8-VxIyV" version="15.1.4" type="github" pages="3">
  <diagram id="ScRJRiiuHPCG-BtNp0C7" name="Update">
    <mxGraphModel dx="2066" dy="1160" grid="1" gridSize="10" guides="1" tooltips="1" connect="1" arrows="1" fold="1" page="1" pageScale="1" pageWidth="827" pageHeight="1169" math="0" shadow="0">
      <root>
        <mxCell id="0" />
        <mxCell id="1" parent="0" />
        <mxCell id="0bvuYEAFGeZTA1XHkPLz-63" style="edgeStyle=orthogonalEdgeStyle;rounded=0;orthogonalLoop=1;jettySize=auto;html=1;exitX=1;exitY=0.5;exitDx=0;exitDy=0;entryX=0;entryY=0.5;entryDx=0;entryDy=0;endArrow=none;endFill=0;" edge="1" parent="1" source="0bvuYEAFGeZTA1XHkPLz-1" target="0bvuYEAFGeZTA1XHkPLz-2">
          <mxGeometry relative="1" as="geometry" />
        </mxCell>
        <mxCell id="0bvuYEAFGeZTA1XHkPLz-67" style="edgeStyle=orthogonalEdgeStyle;rounded=0;orthogonalLoop=1;jettySize=auto;html=1;exitX=0.5;exitY=0;exitDx=0;exitDy=0;entryX=0.5;entryY=1;entryDx=0;entryDy=0;endArrow=none;endFill=0;" edge="1" parent="1" source="0bvuYEAFGeZTA1XHkPLz-1" target="0bvuYEAFGeZTA1XHkPLz-17">
          <mxGeometry relative="1" as="geometry" />
        </mxCell>
        <mxCell id="0bvuYEAFGeZTA1XHkPLz-1" value="L1" style="rounded=1;whiteSpace=wrap;html=1;fillColor=#fff2cc;strokeColor=#d6b656;strokeWidth=4;" vertex="1" parent="1">
          <mxGeometry x="190" y="430" width="60" height="60" as="geometry" />
        </mxCell>
        <mxCell id="0bvuYEAFGeZTA1XHkPLz-64" style="edgeStyle=orthogonalEdgeStyle;rounded=0;orthogonalLoop=1;jettySize=auto;html=1;exitX=1;exitY=0.5;exitDx=0;exitDy=0;entryX=0;entryY=0.5;entryDx=0;entryDy=0;endArrow=none;endFill=0;" edge="1" parent="1" source="0bvuYEAFGeZTA1XHkPLz-2" target="0bvuYEAFGeZTA1XHkPLz-3">
          <mxGeometry relative="1" as="geometry" />
        </mxCell>
        <mxCell id="0bvuYEAFGeZTA1XHkPLz-68" style="edgeStyle=orthogonalEdgeStyle;rounded=0;orthogonalLoop=1;jettySize=auto;html=1;exitX=0.5;exitY=0;exitDx=0;exitDy=0;entryX=0.5;entryY=1;entryDx=0;entryDy=0;endArrow=none;endFill=0;" edge="1" parent="1" source="0bvuYEAFGeZTA1XHkPLz-2" target="0bvuYEAFGeZTA1XHkPLz-18">
          <mxGeometry relative="1" as="geometry" />
        </mxCell>
        <mxCell id="0bvuYEAFGeZTA1XHkPLz-2" value="L2" style="rounded=1;whiteSpace=wrap;html=1;fillColor=#fff2cc;strokeColor=#d6b656;strokeWidth=4;" vertex="1" parent="1">
          <mxGeometry x="260" y="430" width="60" height="60" as="geometry" />
        </mxCell>
        <mxCell id="0bvuYEAFGeZTA1XHkPLz-65" style="edgeStyle=orthogonalEdgeStyle;rounded=0;orthogonalLoop=1;jettySize=auto;html=1;exitX=1;exitY=0.5;exitDx=0;exitDy=0;entryX=0;entryY=0.5;entryDx=0;entryDy=0;endArrow=none;endFill=0;" edge="1" parent="1" source="0bvuYEAFGeZTA1XHkPLz-3" target="0bvuYEAFGeZTA1XHkPLz-4">
          <mxGeometry relative="1" as="geometry" />
        </mxCell>
        <mxCell id="0bvuYEAFGeZTA1XHkPLz-69" style="edgeStyle=orthogonalEdgeStyle;rounded=0;orthogonalLoop=1;jettySize=auto;html=1;exitX=0.5;exitY=0;exitDx=0;exitDy=0;entryX=0.5;entryY=1;entryDx=0;entryDy=0;endArrow=none;endFill=0;" edge="1" parent="1" source="0bvuYEAFGeZTA1XHkPLz-3" target="0bvuYEAFGeZTA1XHkPLz-19">
          <mxGeometry relative="1" as="geometry" />
        </mxCell>
        <mxCell id="0bvuYEAFGeZTA1XHkPLz-3" value="L3" style="rounded=1;whiteSpace=wrap;html=1;fillColor=#fff2cc;strokeColor=#d6b656;strokeWidth=4;" vertex="1" parent="1">
          <mxGeometry x="330" y="430" width="60" height="60" as="geometry" />
        </mxCell>
        <mxCell id="0bvuYEAFGeZTA1XHkPLz-66" style="edgeStyle=orthogonalEdgeStyle;rounded=0;orthogonalLoop=1;jettySize=auto;html=1;exitX=1;exitY=0.5;exitDx=0;exitDy=0;entryX=0;entryY=0.5;entryDx=0;entryDy=0;endArrow=none;endFill=0;" edge="1" parent="1" source="0bvuYEAFGeZTA1XHkPLz-4" target="0bvuYEAFGeZTA1XHkPLz-31">
          <mxGeometry relative="1" as="geometry" />
        </mxCell>
        <mxCell id="0bvuYEAFGeZTA1XHkPLz-70" style="edgeStyle=orthogonalEdgeStyle;rounded=0;orthogonalLoop=1;jettySize=auto;html=1;exitX=0.5;exitY=0;exitDx=0;exitDy=0;entryX=0.5;entryY=1;entryDx=0;entryDy=0;endArrow=none;endFill=0;" edge="1" parent="1" source="0bvuYEAFGeZTA1XHkPLz-4" target="0bvuYEAFGeZTA1XHkPLz-20">
          <mxGeometry relative="1" as="geometry" />
        </mxCell>
        <mxCell id="0bvuYEAFGeZTA1XHkPLz-4" value="L4" style="rounded=1;whiteSpace=wrap;html=1;fillColor=#fff2cc;strokeColor=#d6b656;strokeWidth=4;" vertex="1" parent="1">
          <mxGeometry x="400" y="430" width="60" height="60" as="geometry" />
        </mxCell>
        <mxCell id="0bvuYEAFGeZTA1XHkPLz-41" style="edgeStyle=orthogonalEdgeStyle;rounded=0;orthogonalLoop=1;jettySize=auto;html=1;exitX=0.5;exitY=0;exitDx=0;exitDy=0;entryX=0.5;entryY=1;entryDx=0;entryDy=0;endArrow=none;endFill=0;" edge="1" parent="1" source="0bvuYEAFGeZTA1XHkPLz-5" target="0bvuYEAFGeZTA1XHkPLz-1">
          <mxGeometry relative="1" as="geometry" />
        </mxCell>
        <mxCell id="0bvuYEAFGeZTA1XHkPLz-60" style="edgeStyle=orthogonalEdgeStyle;rounded=0;orthogonalLoop=1;jettySize=auto;html=1;exitX=1;exitY=0.5;exitDx=0;exitDy=0;entryX=0;entryY=0.5;entryDx=0;entryDy=0;endArrow=none;endFill=0;" edge="1" parent="1" source="0bvuYEAFGeZTA1XHkPLz-5" target="0bvuYEAFGeZTA1XHkPLz-6">
          <mxGeometry relative="1" as="geometry" />
        </mxCell>
        <mxCell id="0bvuYEAFGeZTA1XHkPLz-5" value="L5" style="rounded=1;whiteSpace=wrap;html=1;fillColor=#fff2cc;strokeColor=#d6b656;strokeWidth=4;" vertex="1" parent="1">
          <mxGeometry x="190" y="500" width="60" height="60" as="geometry" />
        </mxCell>
        <mxCell id="0bvuYEAFGeZTA1XHkPLz-46" style="edgeStyle=orthogonalEdgeStyle;rounded=0;orthogonalLoop=1;jettySize=auto;html=1;exitX=0.5;exitY=0;exitDx=0;exitDy=0;entryX=0.5;entryY=1;entryDx=0;entryDy=0;endArrow=none;endFill=0;" edge="1" parent="1" source="0bvuYEAFGeZTA1XHkPLz-6" target="0bvuYEAFGeZTA1XHkPLz-2">
          <mxGeometry relative="1" as="geometry" />
        </mxCell>
        <mxCell id="0bvuYEAFGeZTA1XHkPLz-61" style="edgeStyle=orthogonalEdgeStyle;rounded=0;orthogonalLoop=1;jettySize=auto;html=1;exitX=1;exitY=0.5;exitDx=0;exitDy=0;entryX=0;entryY=0.5;entryDx=0;entryDy=0;endArrow=none;endFill=0;" edge="1" parent="1" source="0bvuYEAFGeZTA1XHkPLz-6" target="0bvuYEAFGeZTA1XHkPLz-7">
          <mxGeometry relative="1" as="geometry" />
        </mxCell>
        <mxCell id="0bvuYEAFGeZTA1XHkPLz-6" value="L6" style="rounded=1;whiteSpace=wrap;html=1;fillColor=#fff2cc;strokeWidth=4;strokeColor=#d6b656;" vertex="1" parent="1">
          <mxGeometry x="260" y="500" width="60" height="60" as="geometry" />
        </mxCell>
        <mxCell id="0bvuYEAFGeZTA1XHkPLz-47" style="edgeStyle=orthogonalEdgeStyle;rounded=0;orthogonalLoop=1;jettySize=auto;html=1;exitX=0.5;exitY=0;exitDx=0;exitDy=0;entryX=0.5;entryY=1;entryDx=0;entryDy=0;endArrow=none;endFill=0;" edge="1" parent="1" source="0bvuYEAFGeZTA1XHkPLz-7" target="0bvuYEAFGeZTA1XHkPLz-3">
          <mxGeometry relative="1" as="geometry" />
        </mxCell>
        <mxCell id="0bvuYEAFGeZTA1XHkPLz-62" style="edgeStyle=orthogonalEdgeStyle;rounded=0;orthogonalLoop=1;jettySize=auto;html=1;exitX=1;exitY=0.5;exitDx=0;exitDy=0;entryX=0;entryY=0.5;entryDx=0;entryDy=0;endArrow=none;endFill=0;" edge="1" parent="1" source="0bvuYEAFGeZTA1XHkPLz-7" target="0bvuYEAFGeZTA1XHkPLz-8">
          <mxGeometry relative="1" as="geometry" />
        </mxCell>
        <mxCell id="0bvuYEAFGeZTA1XHkPLz-7" value="L7" style="rounded=1;whiteSpace=wrap;html=1;fillColor=#fff2cc;strokeColor=#d6b656;strokeWidth=4;" vertex="1" parent="1">
          <mxGeometry x="330" y="500" width="60" height="60" as="geometry" />
        </mxCell>
        <mxCell id="0bvuYEAFGeZTA1XHkPLz-53" style="edgeStyle=orthogonalEdgeStyle;rounded=0;orthogonalLoop=1;jettySize=auto;html=1;exitX=0.5;exitY=0;exitDx=0;exitDy=0;entryX=0.5;entryY=1;entryDx=0;entryDy=0;endArrow=none;endFill=0;" edge="1" parent="1" source="0bvuYEAFGeZTA1XHkPLz-8" target="0bvuYEAFGeZTA1XHkPLz-4">
          <mxGeometry relative="1" as="geometry" />
        </mxCell>
        <mxCell id="0bvuYEAFGeZTA1XHkPLz-59" style="edgeStyle=orthogonalEdgeStyle;rounded=0;orthogonalLoop=1;jettySize=auto;html=1;exitX=1;exitY=0.5;exitDx=0;exitDy=0;entryX=0;entryY=0.5;entryDx=0;entryDy=0;endArrow=none;endFill=0;" edge="1" parent="1" source="0bvuYEAFGeZTA1XHkPLz-8" target="0bvuYEAFGeZTA1XHkPLz-33">
          <mxGeometry relative="1" as="geometry" />
        </mxCell>
        <mxCell id="0bvuYEAFGeZTA1XHkPLz-8" value="L8" style="rounded=1;whiteSpace=wrap;html=1;fillColor=#fff2cc;strokeColor=#d6b656;strokeWidth=4;" vertex="1" parent="1">
          <mxGeometry x="400" y="500" width="60" height="60" as="geometry" />
        </mxCell>
        <mxCell id="0bvuYEAFGeZTA1XHkPLz-42" style="edgeStyle=orthogonalEdgeStyle;rounded=0;orthogonalLoop=1;jettySize=auto;html=1;exitX=0.5;exitY=0;exitDx=0;exitDy=0;entryX=0.5;entryY=1;entryDx=0;entryDy=0;endArrow=none;endFill=0;" edge="1" parent="1" source="0bvuYEAFGeZTA1XHkPLz-9" target="0bvuYEAFGeZTA1XHkPLz-5">
          <mxGeometry relative="1" as="geometry" />
        </mxCell>
        <mxCell id="0bvuYEAFGeZTA1XHkPLz-9" value="L9" style="rounded=1;whiteSpace=wrap;html=1;fillColor=#fff2cc;strokeColor=#d6b656;strokeWidth=4;" vertex="1" parent="1">
          <mxGeometry x="190" y="570" width="60" height="60" as="geometry" />
        </mxCell>
        <mxCell id="0bvuYEAFGeZTA1XHkPLz-45" style="edgeStyle=orthogonalEdgeStyle;rounded=0;orthogonalLoop=1;jettySize=auto;html=1;exitX=0.5;exitY=0;exitDx=0;exitDy=0;entryX=0.5;entryY=1;entryDx=0;entryDy=0;endArrow=none;endFill=0;" edge="1" parent="1" source="0bvuYEAFGeZTA1XHkPLz-10" target="0bvuYEAFGeZTA1XHkPLz-6">
          <mxGeometry relative="1" as="geometry" />
        </mxCell>
        <mxCell id="0bvuYEAFGeZTA1XHkPLz-10" value="L10" style="rounded=1;whiteSpace=wrap;html=1;fillColor=#fff2cc;strokeColor=#d6b656;strokeWidth=4;" vertex="1" parent="1">
          <mxGeometry x="260" y="570" width="60" height="60" as="geometry" />
        </mxCell>
        <mxCell id="0bvuYEAFGeZTA1XHkPLz-48" style="edgeStyle=orthogonalEdgeStyle;rounded=0;orthogonalLoop=1;jettySize=auto;html=1;exitX=0.5;exitY=0;exitDx=0;exitDy=0;entryX=0.5;entryY=1;entryDx=0;entryDy=0;endArrow=none;endFill=0;" edge="1" parent="1" source="0bvuYEAFGeZTA1XHkPLz-11" target="0bvuYEAFGeZTA1XHkPLz-7">
          <mxGeometry relative="1" as="geometry" />
        </mxCell>
        <mxCell id="0bvuYEAFGeZTA1XHkPLz-11" value="L11" style="rounded=1;whiteSpace=wrap;html=1;fillColor=#fff2cc;strokeColor=#d6b656;strokeWidth=4;" vertex="1" parent="1">
          <mxGeometry x="330" y="570" width="60" height="60" as="geometry" />
        </mxCell>
        <mxCell id="0bvuYEAFGeZTA1XHkPLz-52" style="edgeStyle=orthogonalEdgeStyle;rounded=0;orthogonalLoop=1;jettySize=auto;html=1;exitX=0.5;exitY=0;exitDx=0;exitDy=0;entryX=0.5;entryY=1;entryDx=0;entryDy=0;endArrow=none;endFill=0;" edge="1" parent="1" source="0bvuYEAFGeZTA1XHkPLz-12" target="0bvuYEAFGeZTA1XHkPLz-8">
          <mxGeometry relative="1" as="geometry" />
        </mxCell>
        <mxCell id="0bvuYEAFGeZTA1XHkPLz-58" style="edgeStyle=orthogonalEdgeStyle;rounded=0;orthogonalLoop=1;jettySize=auto;html=1;exitX=1;exitY=0.5;exitDx=0;exitDy=0;entryX=0;entryY=0.5;entryDx=0;entryDy=0;endArrow=none;endFill=0;" edge="1" parent="1" source="0bvuYEAFGeZTA1XHkPLz-12" target="0bvuYEAFGeZTA1XHkPLz-34">
          <mxGeometry relative="1" as="geometry" />
        </mxCell>
        <mxCell id="0bvuYEAFGeZTA1XHkPLz-12" value="L12" style="rounded=1;whiteSpace=wrap;html=1;fillColor=#fff2cc;strokeColor=#d6b656;strokeWidth=4;" vertex="1" parent="1">
          <mxGeometry x="400" y="570" width="60" height="60" as="geometry" />
        </mxCell>
        <mxCell id="0bvuYEAFGeZTA1XHkPLz-43" style="edgeStyle=orthogonalEdgeStyle;rounded=0;orthogonalLoop=1;jettySize=auto;html=1;exitX=0.5;exitY=0;exitDx=0;exitDy=0;entryX=0.5;entryY=1;entryDx=0;entryDy=0;endArrow=none;endFill=0;" edge="1" parent="1" source="0bvuYEAFGeZTA1XHkPLz-13" target="0bvuYEAFGeZTA1XHkPLz-9">
          <mxGeometry relative="1" as="geometry" />
        </mxCell>
        <mxCell id="0bvuYEAFGeZTA1XHkPLz-54" style="edgeStyle=orthogonalEdgeStyle;rounded=0;orthogonalLoop=1;jettySize=auto;html=1;exitX=1;exitY=0.5;exitDx=0;exitDy=0;entryX=0;entryY=0.5;entryDx=0;entryDy=0;endArrow=none;endFill=0;" edge="1" parent="1" source="0bvuYEAFGeZTA1XHkPLz-13" target="0bvuYEAFGeZTA1XHkPLz-14">
          <mxGeometry relative="1" as="geometry" />
        </mxCell>
        <mxCell id="0bvuYEAFGeZTA1XHkPLz-13" value="L13" style="rounded=1;whiteSpace=wrap;html=1;fillColor=#fff2cc;strokeColor=#d6b656;strokeWidth=4;" vertex="1" parent="1">
          <mxGeometry x="190" y="640" width="60" height="60" as="geometry" />
        </mxCell>
        <mxCell id="0bvuYEAFGeZTA1XHkPLz-44" style="edgeStyle=orthogonalEdgeStyle;rounded=0;orthogonalLoop=1;jettySize=auto;html=1;exitX=0.5;exitY=0;exitDx=0;exitDy=0;entryX=0.5;entryY=1;entryDx=0;entryDy=0;endArrow=none;endFill=0;" edge="1" parent="1" source="0bvuYEAFGeZTA1XHkPLz-14" target="0bvuYEAFGeZTA1XHkPLz-10">
          <mxGeometry relative="1" as="geometry" />
        </mxCell>
        <mxCell id="0bvuYEAFGeZTA1XHkPLz-55" style="edgeStyle=orthogonalEdgeStyle;rounded=0;orthogonalLoop=1;jettySize=auto;html=1;exitX=1;exitY=0.5;exitDx=0;exitDy=0;entryX=0;entryY=0.5;entryDx=0;entryDy=0;endArrow=none;endFill=0;" edge="1" parent="1" source="0bvuYEAFGeZTA1XHkPLz-14" target="0bvuYEAFGeZTA1XHkPLz-15">
          <mxGeometry relative="1" as="geometry" />
        </mxCell>
        <mxCell id="0bvuYEAFGeZTA1XHkPLz-14" value="L14" style="rounded=1;whiteSpace=wrap;html=1;fillColor=#fff2cc;strokeWidth=4;strokeColor=#FF3333;" vertex="1" parent="1">
          <mxGeometry x="260" y="640" width="60" height="60" as="geometry" />
        </mxCell>
        <mxCell id="0bvuYEAFGeZTA1XHkPLz-50" style="edgeStyle=orthogonalEdgeStyle;rounded=0;orthogonalLoop=1;jettySize=auto;html=1;exitX=0.5;exitY=0;exitDx=0;exitDy=0;entryX=0.5;entryY=1;entryDx=0;entryDy=0;endArrow=none;endFill=0;" edge="1" parent="1" source="0bvuYEAFGeZTA1XHkPLz-15" target="0bvuYEAFGeZTA1XHkPLz-11">
          <mxGeometry relative="1" as="geometry" />
        </mxCell>
        <mxCell id="0bvuYEAFGeZTA1XHkPLz-56" style="edgeStyle=orthogonalEdgeStyle;rounded=0;orthogonalLoop=1;jettySize=auto;html=1;exitX=1;exitY=0.5;exitDx=0;exitDy=0;entryX=0;entryY=0.5;entryDx=0;entryDy=0;endArrow=none;endFill=0;" edge="1" parent="1" source="0bvuYEAFGeZTA1XHkPLz-15" target="0bvuYEAFGeZTA1XHkPLz-16">
          <mxGeometry relative="1" as="geometry" />
        </mxCell>
        <mxCell id="0bvuYEAFGeZTA1XHkPLz-15" value="L15" style="rounded=1;whiteSpace=wrap;html=1;fillColor=#fff2cc;strokeColor=#d6b656;strokeWidth=4;" vertex="1" parent="1">
          <mxGeometry x="330" y="640" width="60" height="60" as="geometry" />
        </mxCell>
        <mxCell id="0bvuYEAFGeZTA1XHkPLz-51" style="edgeStyle=orthogonalEdgeStyle;rounded=0;orthogonalLoop=1;jettySize=auto;html=1;exitX=0.5;exitY=0;exitDx=0;exitDy=0;entryX=0.5;entryY=1;entryDx=0;entryDy=0;endArrow=none;endFill=0;" edge="1" parent="1" source="0bvuYEAFGeZTA1XHkPLz-16" target="0bvuYEAFGeZTA1XHkPLz-12">
          <mxGeometry relative="1" as="geometry" />
        </mxCell>
        <mxCell id="0bvuYEAFGeZTA1XHkPLz-57" style="edgeStyle=orthogonalEdgeStyle;rounded=0;orthogonalLoop=1;jettySize=auto;html=1;exitX=1;exitY=0.5;exitDx=0;exitDy=0;entryX=0;entryY=0.5;entryDx=0;entryDy=0;endArrow=none;endFill=0;" edge="1" parent="1" source="0bvuYEAFGeZTA1XHkPLz-16" target="0bvuYEAFGeZTA1XHkPLz-35">
          <mxGeometry relative="1" as="geometry" />
        </mxCell>
        <mxCell id="0bvuYEAFGeZTA1XHkPLz-16" value="N" style="rounded=1;whiteSpace=wrap;html=1;fillColor=#fff2cc;strokeColor=#d6b656;strokeWidth=4;" vertex="1" parent="1">
          <mxGeometry x="400" y="640" width="60" height="60" as="geometry" />
        </mxCell>
        <mxCell id="0bvuYEAFGeZTA1XHkPLz-71" style="rounded=0;orthogonalLoop=1;jettySize=auto;html=1;exitX=0.5;exitY=0;exitDx=0;exitDy=0;entryX=0;entryY=1;entryDx=0;entryDy=0;endArrow=none;endFill=0;" edge="1" parent="1" source="0bvuYEAFGeZTA1XHkPLz-17" target="0bvuYEAFGeZTA1XHkPLz-21">
          <mxGeometry relative="1" as="geometry" />
        </mxCell>
        <mxCell id="0bvuYEAFGeZTA1XHkPLz-17" value="C1" style="ellipse;whiteSpace=wrap;html=1;fillColor=#fff2cc;strokeColor=#d6b656;strokeWidth=3;" vertex="1" parent="1">
          <mxGeometry x="190" y="370" width="60" height="50" as="geometry" />
        </mxCell>
        <mxCell id="0bvuYEAFGeZTA1XHkPLz-72" style="edgeStyle=none;rounded=0;orthogonalLoop=1;jettySize=auto;html=1;exitX=0.5;exitY=0;exitDx=0;exitDy=0;entryX=1;entryY=1;entryDx=0;entryDy=0;endArrow=none;endFill=0;" edge="1" parent="1" source="0bvuYEAFGeZTA1XHkPLz-18" target="0bvuYEAFGeZTA1XHkPLz-21">
          <mxGeometry relative="1" as="geometry" />
        </mxCell>
        <mxCell id="0bvuYEAFGeZTA1XHkPLz-18" value="C2" style="ellipse;whiteSpace=wrap;html=1;fillColor=#fff2cc;strokeWidth=3;strokeColor=#FF3333;" vertex="1" parent="1">
          <mxGeometry x="260" y="370" width="60" height="50" as="geometry" />
        </mxCell>
        <mxCell id="0bvuYEAFGeZTA1XHkPLz-73" style="edgeStyle=none;rounded=0;orthogonalLoop=1;jettySize=auto;html=1;exitX=0.5;exitY=0;exitDx=0;exitDy=0;entryX=0;entryY=1;entryDx=0;entryDy=0;endArrow=none;endFill=0;" edge="1" parent="1" source="0bvuYEAFGeZTA1XHkPLz-19" target="0bvuYEAFGeZTA1XHkPLz-22">
          <mxGeometry relative="1" as="geometry" />
        </mxCell>
        <mxCell id="0bvuYEAFGeZTA1XHkPLz-19" value="C3" style="ellipse;whiteSpace=wrap;html=1;fillColor=#fff2cc;strokeWidth=3;strokeColor=#FF3333;" vertex="1" parent="1">
          <mxGeometry x="330" y="370" width="60" height="50" as="geometry" />
        </mxCell>
        <mxCell id="0bvuYEAFGeZTA1XHkPLz-74" style="edgeStyle=none;rounded=0;orthogonalLoop=1;jettySize=auto;html=1;exitX=0.5;exitY=0;exitDx=0;exitDy=0;entryX=1;entryY=1;entryDx=0;entryDy=0;endArrow=none;endFill=0;" edge="1" parent="1" source="0bvuYEAFGeZTA1XHkPLz-20" target="0bvuYEAFGeZTA1XHkPLz-22">
          <mxGeometry relative="1" as="geometry" />
        </mxCell>
        <mxCell id="0bvuYEAFGeZTA1XHkPLz-20" value="C4" style="ellipse;whiteSpace=wrap;html=1;fillColor=#fff2cc;strokeColor=#d6b656;strokeWidth=3;" vertex="1" parent="1">
          <mxGeometry x="400" y="370" width="60" height="50" as="geometry" />
        </mxCell>
        <mxCell id="0bvuYEAFGeZTA1XHkPLz-75" style="edgeStyle=none;rounded=0;orthogonalLoop=1;jettySize=auto;html=1;exitX=0.5;exitY=0;exitDx=0;exitDy=0;entryX=0;entryY=1;entryDx=0;entryDy=0;endArrow=none;endFill=0;" edge="1" parent="1" source="0bvuYEAFGeZTA1XHkPLz-21" target="0bvuYEAFGeZTA1XHkPLz-23">
          <mxGeometry relative="1" as="geometry" />
        </mxCell>
        <mxCell id="0bvuYEAFGeZTA1XHkPLz-21" value="C1_2" style="ellipse;whiteSpace=wrap;html=1;fillColor=#fff2cc;strokeWidth=3;strokeColor=#FF3333;" vertex="1" parent="1">
          <mxGeometry x="220" y="310" width="60" height="50" as="geometry" />
        </mxCell>
        <mxCell id="0bvuYEAFGeZTA1XHkPLz-76" style="edgeStyle=none;rounded=0;orthogonalLoop=1;jettySize=auto;html=1;exitX=0.5;exitY=0;exitDx=0;exitDy=0;entryX=1;entryY=1;entryDx=0;entryDy=0;endArrow=none;endFill=0;" edge="1" parent="1" source="0bvuYEAFGeZTA1XHkPLz-22" target="0bvuYEAFGeZTA1XHkPLz-23">
          <mxGeometry relative="1" as="geometry" />
        </mxCell>
        <mxCell id="0bvuYEAFGeZTA1XHkPLz-22" value="C3_4" style="ellipse;whiteSpace=wrap;html=1;fillColor=#fff2cc;strokeWidth=3;strokeColor=#FF3333;" vertex="1" parent="1">
          <mxGeometry x="360" y="310" width="60" height="50" as="geometry" />
        </mxCell>
        <mxCell id="0bvuYEAFGeZTA1XHkPLz-77" style="edgeStyle=none;rounded=0;orthogonalLoop=1;jettySize=auto;html=1;exitX=0.5;exitY=0;exitDx=0;exitDy=0;entryX=0;entryY=0.5;entryDx=0;entryDy=0;endArrow=none;endFill=0;" edge="1" parent="1" source="0bvuYEAFGeZTA1XHkPLz-23" target="0bvuYEAFGeZTA1XHkPLz-40">
          <mxGeometry relative="1" as="geometry" />
        </mxCell>
        <mxCell id="0bvuYEAFGeZTA1XHkPLz-23" value="Cm" style="ellipse;whiteSpace=wrap;html=1;fillColor=#fff2cc;strokeWidth=3;strokeColor=#FF3333;" vertex="1" parent="1">
          <mxGeometry x="290" y="260" width="60" height="50" as="geometry" />
        </mxCell>
        <mxCell id="0bvuYEAFGeZTA1XHkPLz-79" style="edgeStyle=none;rounded=0;orthogonalLoop=1;jettySize=auto;html=1;exitX=1;exitY=0.5;exitDx=0;exitDy=0;entryX=0;entryY=0;entryDx=0;entryDy=0;endArrow=none;endFill=0;" edge="1" parent="1" source="0bvuYEAFGeZTA1XHkPLz-31" target="0bvuYEAFGeZTA1XHkPLz-36">
          <mxGeometry relative="1" as="geometry" />
        </mxCell>
        <mxCell id="0bvuYEAFGeZTA1XHkPLz-31" value="R1" style="ellipse;whiteSpace=wrap;html=1;fillColor=#fff2cc;strokeColor=#d6b656;strokeWidth=3;" vertex="1" parent="1">
          <mxGeometry x="473.5" y="430" width="50" height="60" as="geometry" />
        </mxCell>
        <mxCell id="0bvuYEAFGeZTA1XHkPLz-80" style="edgeStyle=none;rounded=0;orthogonalLoop=1;jettySize=auto;html=1;exitX=1;exitY=0.5;exitDx=0;exitDy=0;entryX=0;entryY=1;entryDx=0;entryDy=0;endArrow=none;endFill=0;" edge="1" parent="1" source="0bvuYEAFGeZTA1XHkPLz-33" target="0bvuYEAFGeZTA1XHkPLz-36">
          <mxGeometry relative="1" as="geometry" />
        </mxCell>
        <mxCell id="0bvuYEAFGeZTA1XHkPLz-33" value="R2" style="ellipse;whiteSpace=wrap;html=1;fillColor=#fff2cc;strokeWidth=3;strokeColor=#d6b656;" vertex="1" parent="1">
          <mxGeometry x="473.5" y="500" width="50" height="60" as="geometry" />
        </mxCell>
        <mxCell id="0bvuYEAFGeZTA1XHkPLz-81" style="edgeStyle=none;rounded=0;orthogonalLoop=1;jettySize=auto;html=1;exitX=1;exitY=0.5;exitDx=0;exitDy=0;entryX=0;entryY=0;entryDx=0;entryDy=0;endArrow=none;endFill=0;" edge="1" parent="1" source="0bvuYEAFGeZTA1XHkPLz-34" target="0bvuYEAFGeZTA1XHkPLz-37">
          <mxGeometry relative="1" as="geometry" />
        </mxCell>
        <mxCell id="0bvuYEAFGeZTA1XHkPLz-34" value="R3" style="ellipse;whiteSpace=wrap;html=1;fillColor=#fff2cc;strokeColor=#d6b656;strokeWidth=3;" vertex="1" parent="1">
          <mxGeometry x="474" y="570" width="50" height="60" as="geometry" />
        </mxCell>
        <mxCell id="0bvuYEAFGeZTA1XHkPLz-82" style="edgeStyle=none;rounded=0;orthogonalLoop=1;jettySize=auto;html=1;exitX=1;exitY=0.5;exitDx=0;exitDy=0;entryX=0;entryY=1;entryDx=0;entryDy=0;endArrow=none;endFill=0;" edge="1" parent="1" source="0bvuYEAFGeZTA1XHkPLz-35" target="0bvuYEAFGeZTA1XHkPLz-37">
          <mxGeometry relative="1" as="geometry" />
        </mxCell>
        <mxCell id="0bvuYEAFGeZTA1XHkPLz-35" value="R4" style="ellipse;whiteSpace=wrap;html=1;fillColor=#fff2cc;strokeWidth=3;strokeColor=#FF3333;" vertex="1" parent="1">
          <mxGeometry x="474" y="640" width="50" height="60" as="geometry" />
        </mxCell>
        <mxCell id="0bvuYEAFGeZTA1XHkPLz-84" style="edgeStyle=none;rounded=0;orthogonalLoop=1;jettySize=auto;html=1;exitX=1;exitY=0.5;exitDx=0;exitDy=0;entryX=0;entryY=0;entryDx=0;entryDy=0;endArrow=none;endFill=0;" edge="1" parent="1" source="0bvuYEAFGeZTA1XHkPLz-36" target="0bvuYEAFGeZTA1XHkPLz-39">
          <mxGeometry relative="1" as="geometry" />
        </mxCell>
        <mxCell id="0bvuYEAFGeZTA1XHkPLz-36" value="R1_2" style="ellipse;whiteSpace=wrap;html=1;fillColor=#fff2cc;strokeWidth=3;strokeColor=#d6b656;" vertex="1" parent="1">
          <mxGeometry x="530" y="460" width="50" height="60" as="geometry" />
        </mxCell>
        <mxCell id="0bvuYEAFGeZTA1XHkPLz-83" style="edgeStyle=none;rounded=0;orthogonalLoop=1;jettySize=auto;html=1;exitX=1;exitY=0.5;exitDx=0;exitDy=0;entryX=0;entryY=1;entryDx=0;entryDy=0;endArrow=none;endFill=0;" edge="1" parent="1" source="0bvuYEAFGeZTA1XHkPLz-37" target="0bvuYEAFGeZTA1XHkPLz-39">
          <mxGeometry relative="1" as="geometry" />
        </mxCell>
        <mxCell id="0bvuYEAFGeZTA1XHkPLz-37" value="R3_4" style="ellipse;whiteSpace=wrap;html=1;fillColor=#fff2cc;strokeWidth=3;strokeColor=#FF3333;" vertex="1" parent="1">
          <mxGeometry x="530" y="600" width="50" height="60" as="geometry" />
        </mxCell>
        <mxCell id="0bvuYEAFGeZTA1XHkPLz-78" style="edgeStyle=none;rounded=0;orthogonalLoop=1;jettySize=auto;html=1;exitX=1;exitY=0.5;exitDx=0;exitDy=0;entryX=0.5;entryY=1;entryDx=0;entryDy=0;endArrow=none;endFill=0;" edge="1" parent="1" source="0bvuYEAFGeZTA1XHkPLz-39" target="0bvuYEAFGeZTA1XHkPLz-40">
          <mxGeometry relative="1" as="geometry" />
        </mxCell>
        <mxCell id="0bvuYEAFGeZTA1XHkPLz-39" value="Rm" style="ellipse;whiteSpace=wrap;html=1;fillColor=#fff2cc;strokeWidth=3;strokeColor=#FF3333;" vertex="1" parent="1">
          <mxGeometry x="580" y="530" width="50" height="60" as="geometry" />
        </mxCell>
        <mxCell id="0bvuYEAFGeZTA1XHkPLz-40" value="M" style="ellipse;whiteSpace=wrap;html=1;fillColor=#fff2cc;strokeWidth=3;strokeColor=#FF3333;" vertex="1" parent="1">
          <mxGeometry x="600" y="240" width="60" height="50" as="geometry" />
        </mxCell>
      </root>
    </mxGraphModel>
  </diagram>
  <diagram id="v3RYBZ9Ja8Nd9xbN1cbw" name="Create_1">
    <mxGraphModel dx="2066" dy="1160" grid="1" gridSize="10" guides="1" tooltips="1" connect="1" arrows="1" fold="1" page="1" pageScale="1" pageWidth="827" pageHeight="1169" math="0" shadow="0">
      <root>
        <mxCell id="e3ENK_XE-9C9S2tJgyE9-0" />
        <mxCell id="e3ENK_XE-9C9S2tJgyE9-1" parent="e3ENK_XE-9C9S2tJgyE9-0" />
        <mxCell id="llmvI5TgRICXTZFPn-XO-0" style="edgeStyle=orthogonalEdgeStyle;rounded=0;orthogonalLoop=1;jettySize=auto;html=1;exitX=1;exitY=0.5;exitDx=0;exitDy=0;entryX=0;entryY=0.5;entryDx=0;entryDy=0;endArrow=none;endFill=0;fillColor=#fff2cc;strokeColor=#d6b656;" edge="1" parent="e3ENK_XE-9C9S2tJgyE9-1" source="llmvI5TgRICXTZFPn-XO-2" target="llmvI5TgRICXTZFPn-XO-5">
          <mxGeometry relative="1" as="geometry" />
        </mxCell>
        <mxCell id="llmvI5TgRICXTZFPn-XO-1" style="edgeStyle=orthogonalEdgeStyle;rounded=0;orthogonalLoop=1;jettySize=auto;html=1;exitX=0.5;exitY=0;exitDx=0;exitDy=0;entryX=0.5;entryY=1;entryDx=0;entryDy=0;endArrow=none;endFill=0;fillColor=#fff2cc;strokeColor=#d6b656;" edge="1" parent="e3ENK_XE-9C9S2tJgyE9-1" source="llmvI5TgRICXTZFPn-XO-2" target="llmvI5TgRICXTZFPn-XO-46">
          <mxGeometry relative="1" as="geometry" />
        </mxCell>
        <mxCell id="llmvI5TgRICXTZFPn-XO-2" value="L1" style="rounded=1;whiteSpace=wrap;html=1;fillColor=#fff2cc;strokeColor=#d6b656;strokeWidth=4;" vertex="1" parent="e3ENK_XE-9C9S2tJgyE9-1">
          <mxGeometry x="190" y="430" width="60" height="60" as="geometry" />
        </mxCell>
        <mxCell id="llmvI5TgRICXTZFPn-XO-3" style="edgeStyle=orthogonalEdgeStyle;rounded=0;orthogonalLoop=1;jettySize=auto;html=1;exitX=1;exitY=0.5;exitDx=0;exitDy=0;entryX=0;entryY=0.5;entryDx=0;entryDy=0;endArrow=none;endFill=0;fillColor=#fff2cc;strokeColor=#d6b656;" edge="1" parent="e3ENK_XE-9C9S2tJgyE9-1" source="llmvI5TgRICXTZFPn-XO-5" target="llmvI5TgRICXTZFPn-XO-8">
          <mxGeometry relative="1" as="geometry" />
        </mxCell>
        <mxCell id="llmvI5TgRICXTZFPn-XO-4" style="edgeStyle=orthogonalEdgeStyle;rounded=0;orthogonalLoop=1;jettySize=auto;html=1;exitX=0.5;exitY=0;exitDx=0;exitDy=0;entryX=0.5;entryY=1;entryDx=0;entryDy=0;endArrow=none;endFill=0;fillColor=#fff2cc;strokeColor=#d6b656;" edge="1" parent="e3ENK_XE-9C9S2tJgyE9-1" source="llmvI5TgRICXTZFPn-XO-5" target="llmvI5TgRICXTZFPn-XO-48">
          <mxGeometry relative="1" as="geometry" />
        </mxCell>
        <mxCell id="llmvI5TgRICXTZFPn-XO-5" value="L2" style="rounded=1;whiteSpace=wrap;html=1;fillColor=#fff2cc;strokeColor=#d6b656;strokeWidth=4;" vertex="1" parent="e3ENK_XE-9C9S2tJgyE9-1">
          <mxGeometry x="260" y="430" width="60" height="60" as="geometry" />
        </mxCell>
        <mxCell id="llmvI5TgRICXTZFPn-XO-6" style="edgeStyle=orthogonalEdgeStyle;rounded=0;orthogonalLoop=1;jettySize=auto;html=1;exitX=1;exitY=0.5;exitDx=0;exitDy=0;entryX=0;entryY=0.5;entryDx=0;entryDy=0;endArrow=none;endFill=0;fillColor=#fff2cc;strokeColor=#d6b656;" edge="1" parent="e3ENK_XE-9C9S2tJgyE9-1" source="llmvI5TgRICXTZFPn-XO-8" target="llmvI5TgRICXTZFPn-XO-11">
          <mxGeometry relative="1" as="geometry" />
        </mxCell>
        <mxCell id="llmvI5TgRICXTZFPn-XO-7" style="edgeStyle=orthogonalEdgeStyle;rounded=0;orthogonalLoop=1;jettySize=auto;html=1;exitX=0.5;exitY=0;exitDx=0;exitDy=0;entryX=0.5;entryY=1;entryDx=0;entryDy=0;endArrow=none;endFill=0;fillColor=#fff2cc;strokeColor=#d6b656;" edge="1" parent="e3ENK_XE-9C9S2tJgyE9-1" source="llmvI5TgRICXTZFPn-XO-8" target="llmvI5TgRICXTZFPn-XO-50">
          <mxGeometry relative="1" as="geometry" />
        </mxCell>
        <mxCell id="llmvI5TgRICXTZFPn-XO-8" value="L3" style="rounded=1;whiteSpace=wrap;html=1;fillColor=#fff2cc;strokeColor=#d6b656;strokeWidth=4;" vertex="1" parent="e3ENK_XE-9C9S2tJgyE9-1">
          <mxGeometry x="330" y="430" width="60" height="60" as="geometry" />
        </mxCell>
        <mxCell id="llmvI5TgRICXTZFPn-XO-9" style="edgeStyle=orthogonalEdgeStyle;rounded=0;orthogonalLoop=1;jettySize=auto;html=1;exitX=1;exitY=0.5;exitDx=0;exitDy=0;entryX=0;entryY=0.5;entryDx=0;entryDy=0;endArrow=none;endFill=0;fillColor=#fff2cc;strokeColor=#d6b656;" edge="1" parent="e3ENK_XE-9C9S2tJgyE9-1" source="llmvI5TgRICXTZFPn-XO-11" target="llmvI5TgRICXTZFPn-XO-60">
          <mxGeometry relative="1" as="geometry" />
        </mxCell>
        <mxCell id="llmvI5TgRICXTZFPn-XO-10" style="edgeStyle=orthogonalEdgeStyle;rounded=0;orthogonalLoop=1;jettySize=auto;html=1;exitX=0.5;exitY=0;exitDx=0;exitDy=0;entryX=0.5;entryY=1;entryDx=0;entryDy=0;endArrow=none;endFill=0;fillColor=#fff2cc;strokeColor=#d6b656;" edge="1" parent="e3ENK_XE-9C9S2tJgyE9-1" source="llmvI5TgRICXTZFPn-XO-11" target="llmvI5TgRICXTZFPn-XO-52">
          <mxGeometry relative="1" as="geometry" />
        </mxCell>
        <mxCell id="llmvI5TgRICXTZFPn-XO-11" value="L4" style="rounded=1;whiteSpace=wrap;html=1;fillColor=#fff2cc;strokeColor=#d6b656;strokeWidth=4;" vertex="1" parent="e3ENK_XE-9C9S2tJgyE9-1">
          <mxGeometry x="400" y="430" width="60" height="60" as="geometry" />
        </mxCell>
        <mxCell id="llmvI5TgRICXTZFPn-XO-12" style="edgeStyle=orthogonalEdgeStyle;rounded=0;orthogonalLoop=1;jettySize=auto;html=1;exitX=0.5;exitY=0;exitDx=0;exitDy=0;entryX=0.5;entryY=1;entryDx=0;entryDy=0;endArrow=none;endFill=0;fillColor=#fff2cc;strokeColor=#d6b656;" edge="1" parent="e3ENK_XE-9C9S2tJgyE9-1" source="llmvI5TgRICXTZFPn-XO-14" target="llmvI5TgRICXTZFPn-XO-2">
          <mxGeometry relative="1" as="geometry" />
        </mxCell>
        <mxCell id="llmvI5TgRICXTZFPn-XO-13" style="edgeStyle=orthogonalEdgeStyle;rounded=0;orthogonalLoop=1;jettySize=auto;html=1;exitX=1;exitY=0.5;exitDx=0;exitDy=0;entryX=0;entryY=0.5;entryDx=0;entryDy=0;endArrow=none;endFill=0;fillColor=#fff2cc;strokeColor=#d6b656;" edge="1" parent="e3ENK_XE-9C9S2tJgyE9-1" source="llmvI5TgRICXTZFPn-XO-14" target="llmvI5TgRICXTZFPn-XO-17">
          <mxGeometry relative="1" as="geometry" />
        </mxCell>
        <mxCell id="llmvI5TgRICXTZFPn-XO-14" value="L5" style="rounded=1;whiteSpace=wrap;html=1;fillColor=#fff2cc;strokeColor=#d6b656;strokeWidth=4;" vertex="1" parent="e3ENK_XE-9C9S2tJgyE9-1">
          <mxGeometry x="190" y="500" width="60" height="60" as="geometry" />
        </mxCell>
        <mxCell id="llmvI5TgRICXTZFPn-XO-15" style="edgeStyle=orthogonalEdgeStyle;rounded=0;orthogonalLoop=1;jettySize=auto;html=1;exitX=0.5;exitY=0;exitDx=0;exitDy=0;entryX=0.5;entryY=1;entryDx=0;entryDy=0;endArrow=none;endFill=0;fillColor=#fff2cc;strokeColor=#d6b656;" edge="1" parent="e3ENK_XE-9C9S2tJgyE9-1" source="llmvI5TgRICXTZFPn-XO-17" target="llmvI5TgRICXTZFPn-XO-5">
          <mxGeometry relative="1" as="geometry" />
        </mxCell>
        <mxCell id="llmvI5TgRICXTZFPn-XO-16" style="edgeStyle=orthogonalEdgeStyle;rounded=0;orthogonalLoop=1;jettySize=auto;html=1;exitX=1;exitY=0.5;exitDx=0;exitDy=0;entryX=0;entryY=0.5;entryDx=0;entryDy=0;endArrow=none;endFill=0;fillColor=#fff2cc;strokeColor=#d6b656;" edge="1" parent="e3ENK_XE-9C9S2tJgyE9-1" source="llmvI5TgRICXTZFPn-XO-17" target="llmvI5TgRICXTZFPn-XO-20">
          <mxGeometry relative="1" as="geometry" />
        </mxCell>
        <mxCell id="llmvI5TgRICXTZFPn-XO-17" value="L6" style="rounded=1;whiteSpace=wrap;html=1;fillColor=#fff2cc;strokeWidth=4;strokeColor=#d6b656;" vertex="1" parent="e3ENK_XE-9C9S2tJgyE9-1">
          <mxGeometry x="260" y="500" width="60" height="60" as="geometry" />
        </mxCell>
        <mxCell id="llmvI5TgRICXTZFPn-XO-18" style="edgeStyle=orthogonalEdgeStyle;rounded=0;orthogonalLoop=1;jettySize=auto;html=1;exitX=0.5;exitY=0;exitDx=0;exitDy=0;entryX=0.5;entryY=1;entryDx=0;entryDy=0;endArrow=none;endFill=0;fillColor=#fff2cc;strokeColor=#d6b656;" edge="1" parent="e3ENK_XE-9C9S2tJgyE9-1" source="llmvI5TgRICXTZFPn-XO-20" target="llmvI5TgRICXTZFPn-XO-8">
          <mxGeometry relative="1" as="geometry" />
        </mxCell>
        <mxCell id="llmvI5TgRICXTZFPn-XO-19" style="edgeStyle=orthogonalEdgeStyle;rounded=0;orthogonalLoop=1;jettySize=auto;html=1;exitX=1;exitY=0.5;exitDx=0;exitDy=0;entryX=0;entryY=0.5;entryDx=0;entryDy=0;endArrow=none;endFill=0;fillColor=#fff2cc;strokeColor=#d6b656;" edge="1" parent="e3ENK_XE-9C9S2tJgyE9-1" source="llmvI5TgRICXTZFPn-XO-20" target="llmvI5TgRICXTZFPn-XO-23">
          <mxGeometry relative="1" as="geometry" />
        </mxCell>
        <mxCell id="llmvI5TgRICXTZFPn-XO-20" value="L7" style="rounded=1;whiteSpace=wrap;html=1;fillColor=#fff2cc;strokeColor=#d6b656;strokeWidth=4;" vertex="1" parent="e3ENK_XE-9C9S2tJgyE9-1">
          <mxGeometry x="330" y="500" width="60" height="60" as="geometry" />
        </mxCell>
        <mxCell id="llmvI5TgRICXTZFPn-XO-21" style="edgeStyle=orthogonalEdgeStyle;rounded=0;orthogonalLoop=1;jettySize=auto;html=1;exitX=0.5;exitY=0;exitDx=0;exitDy=0;entryX=0.5;entryY=1;entryDx=0;entryDy=0;endArrow=none;endFill=0;fillColor=#fff2cc;strokeColor=#d6b656;" edge="1" parent="e3ENK_XE-9C9S2tJgyE9-1" source="llmvI5TgRICXTZFPn-XO-23" target="llmvI5TgRICXTZFPn-XO-11">
          <mxGeometry relative="1" as="geometry" />
        </mxCell>
        <mxCell id="llmvI5TgRICXTZFPn-XO-22" style="edgeStyle=orthogonalEdgeStyle;rounded=0;orthogonalLoop=1;jettySize=auto;html=1;exitX=1;exitY=0.5;exitDx=0;exitDy=0;entryX=0;entryY=0.5;entryDx=0;entryDy=0;endArrow=none;endFill=0;fillColor=#fff2cc;strokeColor=#d6b656;" edge="1" parent="e3ENK_XE-9C9S2tJgyE9-1" source="llmvI5TgRICXTZFPn-XO-23" target="llmvI5TgRICXTZFPn-XO-62">
          <mxGeometry relative="1" as="geometry" />
        </mxCell>
        <mxCell id="llmvI5TgRICXTZFPn-XO-23" value="L8" style="rounded=1;whiteSpace=wrap;html=1;fillColor=#fff2cc;strokeColor=#d6b656;strokeWidth=4;" vertex="1" parent="e3ENK_XE-9C9S2tJgyE9-1">
          <mxGeometry x="400" y="500" width="60" height="60" as="geometry" />
        </mxCell>
        <mxCell id="llmvI5TgRICXTZFPn-XO-24" style="edgeStyle=orthogonalEdgeStyle;rounded=0;orthogonalLoop=1;jettySize=auto;html=1;exitX=0.5;exitY=0;exitDx=0;exitDy=0;entryX=0.5;entryY=1;entryDx=0;entryDy=0;endArrow=none;endFill=0;fillColor=#fff2cc;strokeColor=#d6b656;" edge="1" parent="e3ENK_XE-9C9S2tJgyE9-1" source="llmvI5TgRICXTZFPn-XO-25" target="llmvI5TgRICXTZFPn-XO-14">
          <mxGeometry relative="1" as="geometry" />
        </mxCell>
        <mxCell id="llmvI5TgRICXTZFPn-XO-25" value="L9" style="rounded=1;whiteSpace=wrap;html=1;fillColor=#fff2cc;strokeColor=#d6b656;strokeWidth=4;" vertex="1" parent="e3ENK_XE-9C9S2tJgyE9-1">
          <mxGeometry x="190" y="570" width="60" height="60" as="geometry" />
        </mxCell>
        <mxCell id="llmvI5TgRICXTZFPn-XO-26" style="edgeStyle=orthogonalEdgeStyle;rounded=0;orthogonalLoop=1;jettySize=auto;html=1;exitX=0.5;exitY=0;exitDx=0;exitDy=0;entryX=0.5;entryY=1;entryDx=0;entryDy=0;endArrow=none;endFill=0;fillColor=#fff2cc;strokeColor=#d6b656;" edge="1" parent="e3ENK_XE-9C9S2tJgyE9-1" source="llmvI5TgRICXTZFPn-XO-27" target="llmvI5TgRICXTZFPn-XO-17">
          <mxGeometry relative="1" as="geometry" />
        </mxCell>
        <mxCell id="llmvI5TgRICXTZFPn-XO-27" value="L10" style="rounded=1;whiteSpace=wrap;html=1;fillColor=#fff2cc;strokeColor=#d6b656;strokeWidth=4;" vertex="1" parent="e3ENK_XE-9C9S2tJgyE9-1">
          <mxGeometry x="260" y="570" width="60" height="60" as="geometry" />
        </mxCell>
        <mxCell id="llmvI5TgRICXTZFPn-XO-28" style="edgeStyle=orthogonalEdgeStyle;rounded=0;orthogonalLoop=1;jettySize=auto;html=1;exitX=0.5;exitY=0;exitDx=0;exitDy=0;entryX=0.5;entryY=1;entryDx=0;entryDy=0;endArrow=none;endFill=0;fillColor=#fff2cc;strokeColor=#d6b656;" edge="1" parent="e3ENK_XE-9C9S2tJgyE9-1" source="llmvI5TgRICXTZFPn-XO-29" target="llmvI5TgRICXTZFPn-XO-20">
          <mxGeometry relative="1" as="geometry" />
        </mxCell>
        <mxCell id="llmvI5TgRICXTZFPn-XO-29" value="L11" style="rounded=1;whiteSpace=wrap;html=1;fillColor=#fff2cc;strokeColor=#d6b656;strokeWidth=4;" vertex="1" parent="e3ENK_XE-9C9S2tJgyE9-1">
          <mxGeometry x="330" y="570" width="60" height="60" as="geometry" />
        </mxCell>
        <mxCell id="llmvI5TgRICXTZFPn-XO-30" style="edgeStyle=orthogonalEdgeStyle;rounded=0;orthogonalLoop=1;jettySize=auto;html=1;exitX=0.5;exitY=0;exitDx=0;exitDy=0;entryX=0.5;entryY=1;entryDx=0;entryDy=0;endArrow=none;endFill=0;fillColor=#fff2cc;strokeColor=#d6b656;" edge="1" parent="e3ENK_XE-9C9S2tJgyE9-1" source="llmvI5TgRICXTZFPn-XO-32" target="llmvI5TgRICXTZFPn-XO-23">
          <mxGeometry relative="1" as="geometry" />
        </mxCell>
        <mxCell id="llmvI5TgRICXTZFPn-XO-31" style="edgeStyle=orthogonalEdgeStyle;rounded=0;orthogonalLoop=1;jettySize=auto;html=1;exitX=1;exitY=0.5;exitDx=0;exitDy=0;entryX=0;entryY=0.5;entryDx=0;entryDy=0;endArrow=none;endFill=0;fillColor=#fff2cc;strokeColor=#d6b656;" edge="1" parent="e3ENK_XE-9C9S2tJgyE9-1" source="llmvI5TgRICXTZFPn-XO-32" target="llmvI5TgRICXTZFPn-XO-64">
          <mxGeometry relative="1" as="geometry" />
        </mxCell>
        <mxCell id="llmvI5TgRICXTZFPn-XO-32" value="L12" style="rounded=1;whiteSpace=wrap;html=1;fillColor=#fff2cc;strokeColor=#d6b656;strokeWidth=4;" vertex="1" parent="e3ENK_XE-9C9S2tJgyE9-1">
          <mxGeometry x="400" y="570" width="60" height="60" as="geometry" />
        </mxCell>
        <mxCell id="llmvI5TgRICXTZFPn-XO-33" style="edgeStyle=orthogonalEdgeStyle;rounded=0;orthogonalLoop=1;jettySize=auto;html=1;exitX=0.5;exitY=0;exitDx=0;exitDy=0;entryX=0.5;entryY=1;entryDx=0;entryDy=0;endArrow=none;endFill=0;fillColor=#fff2cc;strokeColor=#d6b656;" edge="1" parent="e3ENK_XE-9C9S2tJgyE9-1" source="llmvI5TgRICXTZFPn-XO-35" target="llmvI5TgRICXTZFPn-XO-25">
          <mxGeometry relative="1" as="geometry" />
        </mxCell>
        <mxCell id="llmvI5TgRICXTZFPn-XO-34" style="edgeStyle=orthogonalEdgeStyle;rounded=0;orthogonalLoop=1;jettySize=auto;html=1;exitX=1;exitY=0.5;exitDx=0;exitDy=0;entryX=0;entryY=0.5;entryDx=0;entryDy=0;endArrow=none;endFill=0;fillColor=#fff2cc;strokeColor=#d6b656;" edge="1" parent="e3ENK_XE-9C9S2tJgyE9-1" source="llmvI5TgRICXTZFPn-XO-35" target="llmvI5TgRICXTZFPn-XO-38">
          <mxGeometry relative="1" as="geometry" />
        </mxCell>
        <mxCell id="llmvI5TgRICXTZFPn-XO-35" value="L13" style="rounded=1;whiteSpace=wrap;html=1;fillColor=#fff2cc;strokeColor=#d6b656;strokeWidth=4;" vertex="1" parent="e3ENK_XE-9C9S2tJgyE9-1">
          <mxGeometry x="190" y="640" width="60" height="60" as="geometry" />
        </mxCell>
        <mxCell id="llmvI5TgRICXTZFPn-XO-36" style="edgeStyle=orthogonalEdgeStyle;rounded=0;orthogonalLoop=1;jettySize=auto;html=1;exitX=0.5;exitY=0;exitDx=0;exitDy=0;entryX=0.5;entryY=1;entryDx=0;entryDy=0;endArrow=none;endFill=0;fillColor=#fff2cc;strokeColor=#d6b656;" edge="1" parent="e3ENK_XE-9C9S2tJgyE9-1" source="llmvI5TgRICXTZFPn-XO-38" target="llmvI5TgRICXTZFPn-XO-27">
          <mxGeometry relative="1" as="geometry" />
        </mxCell>
        <mxCell id="llmvI5TgRICXTZFPn-XO-37" style="edgeStyle=orthogonalEdgeStyle;rounded=0;orthogonalLoop=1;jettySize=auto;html=1;exitX=1;exitY=0.5;exitDx=0;exitDy=0;entryX=0;entryY=0.5;entryDx=0;entryDy=0;endArrow=none;endFill=0;fillColor=#fff2cc;strokeColor=#d6b656;" edge="1" parent="e3ENK_XE-9C9S2tJgyE9-1" source="llmvI5TgRICXTZFPn-XO-38" target="llmvI5TgRICXTZFPn-XO-41">
          <mxGeometry relative="1" as="geometry" />
        </mxCell>
        <mxCell id="llmvI5TgRICXTZFPn-XO-38" value="L14" style="rounded=1;whiteSpace=wrap;html=1;fillColor=#fff2cc;strokeColor=#d6b656;strokeWidth=4;" vertex="1" parent="e3ENK_XE-9C9S2tJgyE9-1">
          <mxGeometry x="260" y="640" width="60" height="60" as="geometry" />
        </mxCell>
        <mxCell id="llmvI5TgRICXTZFPn-XO-39" style="edgeStyle=orthogonalEdgeStyle;rounded=0;orthogonalLoop=1;jettySize=auto;html=1;exitX=0.5;exitY=0;exitDx=0;exitDy=0;entryX=0.5;entryY=1;entryDx=0;entryDy=0;endArrow=none;endFill=0;fillColor=#fff2cc;strokeColor=#d6b656;" edge="1" parent="e3ENK_XE-9C9S2tJgyE9-1" source="llmvI5TgRICXTZFPn-XO-41" target="llmvI5TgRICXTZFPn-XO-29">
          <mxGeometry relative="1" as="geometry" />
        </mxCell>
        <mxCell id="llmvI5TgRICXTZFPn-XO-40" style="edgeStyle=orthogonalEdgeStyle;rounded=0;orthogonalLoop=1;jettySize=auto;html=1;exitX=1;exitY=0.5;exitDx=0;exitDy=0;entryX=0;entryY=0.5;entryDx=0;entryDy=0;endArrow=none;endFill=0;fillColor=#fff2cc;strokeColor=#d6b656;" edge="1" parent="e3ENK_XE-9C9S2tJgyE9-1" source="llmvI5TgRICXTZFPn-XO-41" target="llmvI5TgRICXTZFPn-XO-44">
          <mxGeometry relative="1" as="geometry" />
        </mxCell>
        <mxCell id="llmvI5TgRICXTZFPn-XO-41" value="L15" style="rounded=1;whiteSpace=wrap;html=1;fillColor=#fff2cc;strokeColor=#d6b656;strokeWidth=4;" vertex="1" parent="e3ENK_XE-9C9S2tJgyE9-1">
          <mxGeometry x="330" y="640" width="60" height="60" as="geometry" />
        </mxCell>
        <mxCell id="llmvI5TgRICXTZFPn-XO-42" style="edgeStyle=orthogonalEdgeStyle;rounded=0;orthogonalLoop=1;jettySize=auto;html=1;exitX=0.5;exitY=0;exitDx=0;exitDy=0;entryX=0.5;entryY=1;entryDx=0;entryDy=0;endArrow=none;endFill=0;fillColor=#fff2cc;strokeColor=#d6b656;" edge="1" parent="e3ENK_XE-9C9S2tJgyE9-1" source="llmvI5TgRICXTZFPn-XO-44" target="llmvI5TgRICXTZFPn-XO-32">
          <mxGeometry relative="1" as="geometry" />
        </mxCell>
        <mxCell id="llmvI5TgRICXTZFPn-XO-43" style="edgeStyle=orthogonalEdgeStyle;rounded=0;orthogonalLoop=1;jettySize=auto;html=1;exitX=1;exitY=0.5;exitDx=0;exitDy=0;entryX=0;entryY=0.5;entryDx=0;entryDy=0;endArrow=none;endFill=0;fillColor=#fff2cc;strokeColor=#d6b656;" edge="1" parent="e3ENK_XE-9C9S2tJgyE9-1" source="llmvI5TgRICXTZFPn-XO-44" target="llmvI5TgRICXTZFPn-XO-66">
          <mxGeometry relative="1" as="geometry" />
        </mxCell>
        <mxCell id="llmvI5TgRICXTZFPn-XO-44" value="N" style="rounded=1;whiteSpace=wrap;html=1;fillColor=#fff2cc;strokeColor=#d6b656;strokeWidth=4;" vertex="1" parent="e3ENK_XE-9C9S2tJgyE9-1">
          <mxGeometry x="400" y="640" width="60" height="60" as="geometry" />
        </mxCell>
        <mxCell id="llmvI5TgRICXTZFPn-XO-45" style="rounded=0;orthogonalLoop=1;jettySize=auto;html=1;exitX=0.5;exitY=0;exitDx=0;exitDy=0;entryX=0;entryY=1;entryDx=0;entryDy=0;endArrow=none;endFill=0;fillColor=#fff2cc;strokeColor=#d6b656;" edge="1" parent="e3ENK_XE-9C9S2tJgyE9-1" source="llmvI5TgRICXTZFPn-XO-46" target="llmvI5TgRICXTZFPn-XO-54">
          <mxGeometry relative="1" as="geometry" />
        </mxCell>
        <mxCell id="llmvI5TgRICXTZFPn-XO-46" value="C1" style="ellipse;whiteSpace=wrap;html=1;fillColor=#fff2cc;strokeColor=#d6b656;strokeWidth=3;" vertex="1" parent="e3ENK_XE-9C9S2tJgyE9-1">
          <mxGeometry x="190" y="370" width="60" height="50" as="geometry" />
        </mxCell>
        <mxCell id="llmvI5TgRICXTZFPn-XO-47" style="edgeStyle=none;rounded=0;orthogonalLoop=1;jettySize=auto;html=1;exitX=0.5;exitY=0;exitDx=0;exitDy=0;entryX=1;entryY=1;entryDx=0;entryDy=0;endArrow=none;endFill=0;fillColor=#fff2cc;strokeColor=#d6b656;" edge="1" parent="e3ENK_XE-9C9S2tJgyE9-1" source="llmvI5TgRICXTZFPn-XO-48" target="llmvI5TgRICXTZFPn-XO-54">
          <mxGeometry relative="1" as="geometry" />
        </mxCell>
        <mxCell id="llmvI5TgRICXTZFPn-XO-48" value="C2" style="ellipse;whiteSpace=wrap;html=1;fillColor=#fff2cc;strokeWidth=3;strokeColor=#d6b656;" vertex="1" parent="e3ENK_XE-9C9S2tJgyE9-1">
          <mxGeometry x="260" y="370" width="60" height="50" as="geometry" />
        </mxCell>
        <mxCell id="llmvI5TgRICXTZFPn-XO-49" style="edgeStyle=none;rounded=0;orthogonalLoop=1;jettySize=auto;html=1;exitX=0.5;exitY=0;exitDx=0;exitDy=0;entryX=0;entryY=1;entryDx=0;entryDy=0;endArrow=none;endFill=0;fillColor=#fff2cc;strokeColor=#d6b656;" edge="1" parent="e3ENK_XE-9C9S2tJgyE9-1" source="llmvI5TgRICXTZFPn-XO-50" target="llmvI5TgRICXTZFPn-XO-56">
          <mxGeometry relative="1" as="geometry" />
        </mxCell>
        <mxCell id="llmvI5TgRICXTZFPn-XO-50" value="C3" style="ellipse;whiteSpace=wrap;html=1;fillColor=#fff2cc;strokeColor=#d6b656;strokeWidth=3;" vertex="1" parent="e3ENK_XE-9C9S2tJgyE9-1">
          <mxGeometry x="330" y="370" width="60" height="50" as="geometry" />
        </mxCell>
        <mxCell id="llmvI5TgRICXTZFPn-XO-51" style="edgeStyle=none;rounded=0;orthogonalLoop=1;jettySize=auto;html=1;exitX=0.5;exitY=0;exitDx=0;exitDy=0;entryX=1;entryY=1;entryDx=0;entryDy=0;endArrow=none;endFill=0;fillColor=#fff2cc;strokeColor=#d6b656;" edge="1" parent="e3ENK_XE-9C9S2tJgyE9-1" source="llmvI5TgRICXTZFPn-XO-52" target="llmvI5TgRICXTZFPn-XO-56">
          <mxGeometry relative="1" as="geometry" />
        </mxCell>
        <mxCell id="llmvI5TgRICXTZFPn-XO-52" value="C4" style="ellipse;whiteSpace=wrap;html=1;fillColor=#fff2cc;strokeColor=#d6b656;strokeWidth=3;" vertex="1" parent="e3ENK_XE-9C9S2tJgyE9-1">
          <mxGeometry x="400" y="370" width="60" height="50" as="geometry" />
        </mxCell>
        <mxCell id="llmvI5TgRICXTZFPn-XO-53" style="edgeStyle=none;rounded=0;orthogonalLoop=1;jettySize=auto;html=1;exitX=0.5;exitY=0;exitDx=0;exitDy=0;entryX=0;entryY=1;entryDx=0;entryDy=0;endArrow=none;endFill=0;fillColor=#fff2cc;strokeColor=#d6b656;" edge="1" parent="e3ENK_XE-9C9S2tJgyE9-1" source="llmvI5TgRICXTZFPn-XO-54" target="llmvI5TgRICXTZFPn-XO-58">
          <mxGeometry relative="1" as="geometry" />
        </mxCell>
        <mxCell id="llmvI5TgRICXTZFPn-XO-54" value="C1_2" style="ellipse;whiteSpace=wrap;html=1;fillColor=#fff2cc;strokeWidth=3;strokeColor=#d6b656;" vertex="1" parent="e3ENK_XE-9C9S2tJgyE9-1">
          <mxGeometry x="220" y="310" width="60" height="50" as="geometry" />
        </mxCell>
        <mxCell id="llmvI5TgRICXTZFPn-XO-55" style="edgeStyle=none;rounded=0;orthogonalLoop=1;jettySize=auto;html=1;exitX=0.5;exitY=0;exitDx=0;exitDy=0;entryX=1;entryY=1;entryDx=0;entryDy=0;endArrow=none;endFill=0;fillColor=#fff2cc;strokeColor=#d6b656;" edge="1" parent="e3ENK_XE-9C9S2tJgyE9-1" source="llmvI5TgRICXTZFPn-XO-56" target="llmvI5TgRICXTZFPn-XO-58">
          <mxGeometry relative="1" as="geometry" />
        </mxCell>
        <mxCell id="llmvI5TgRICXTZFPn-XO-56" value="C3_4" style="ellipse;whiteSpace=wrap;html=1;fillColor=#fff2cc;strokeColor=#d6b656;strokeWidth=3;" vertex="1" parent="e3ENK_XE-9C9S2tJgyE9-1">
          <mxGeometry x="360" y="310" width="60" height="50" as="geometry" />
        </mxCell>
        <mxCell id="llmvI5TgRICXTZFPn-XO-57" style="edgeStyle=none;rounded=0;orthogonalLoop=1;jettySize=auto;html=1;exitX=0.5;exitY=0;exitDx=0;exitDy=0;entryX=0;entryY=0.5;entryDx=0;entryDy=0;endArrow=none;endFill=0;fillColor=#fff2cc;strokeColor=#d6b656;" edge="1" parent="e3ENK_XE-9C9S2tJgyE9-1" source="llmvI5TgRICXTZFPn-XO-58" target="llmvI5TgRICXTZFPn-XO-73">
          <mxGeometry relative="1" as="geometry" />
        </mxCell>
        <mxCell id="llmvI5TgRICXTZFPn-XO-58" value="Cm" style="ellipse;whiteSpace=wrap;html=1;fillColor=#fff2cc;strokeWidth=3;strokeColor=#d6b656;" vertex="1" parent="e3ENK_XE-9C9S2tJgyE9-1">
          <mxGeometry x="290" y="260" width="60" height="50" as="geometry" />
        </mxCell>
        <mxCell id="llmvI5TgRICXTZFPn-XO-59" style="edgeStyle=none;rounded=0;orthogonalLoop=1;jettySize=auto;html=1;exitX=1;exitY=0.5;exitDx=0;exitDy=0;entryX=0;entryY=0;entryDx=0;entryDy=0;endArrow=none;endFill=0;fillColor=#fff2cc;strokeColor=#d6b656;" edge="1" parent="e3ENK_XE-9C9S2tJgyE9-1" source="llmvI5TgRICXTZFPn-XO-60" target="llmvI5TgRICXTZFPn-XO-68">
          <mxGeometry relative="1" as="geometry" />
        </mxCell>
        <mxCell id="llmvI5TgRICXTZFPn-XO-60" value="R1" style="ellipse;whiteSpace=wrap;html=1;fillColor=#fff2cc;strokeColor=#d6b656;strokeWidth=3;" vertex="1" parent="e3ENK_XE-9C9S2tJgyE9-1">
          <mxGeometry x="473.5" y="430" width="50" height="60" as="geometry" />
        </mxCell>
        <mxCell id="llmvI5TgRICXTZFPn-XO-61" style="edgeStyle=none;rounded=0;orthogonalLoop=1;jettySize=auto;html=1;exitX=1;exitY=0.5;exitDx=0;exitDy=0;entryX=0;entryY=1;entryDx=0;entryDy=0;endArrow=none;endFill=0;fillColor=#fff2cc;strokeColor=#d6b656;" edge="1" parent="e3ENK_XE-9C9S2tJgyE9-1" source="llmvI5TgRICXTZFPn-XO-62" target="llmvI5TgRICXTZFPn-XO-68">
          <mxGeometry relative="1" as="geometry" />
        </mxCell>
        <mxCell id="llmvI5TgRICXTZFPn-XO-62" value="R2" style="ellipse;whiteSpace=wrap;html=1;fillColor=#fff2cc;strokeWidth=3;strokeColor=#d6b656;" vertex="1" parent="e3ENK_XE-9C9S2tJgyE9-1">
          <mxGeometry x="473.5" y="500" width="50" height="60" as="geometry" />
        </mxCell>
        <mxCell id="llmvI5TgRICXTZFPn-XO-63" style="edgeStyle=none;rounded=0;orthogonalLoop=1;jettySize=auto;html=1;exitX=1;exitY=0.5;exitDx=0;exitDy=0;entryX=0;entryY=0;entryDx=0;entryDy=0;endArrow=none;endFill=0;fillColor=#fff2cc;strokeColor=#d6b656;" edge="1" parent="e3ENK_XE-9C9S2tJgyE9-1" source="llmvI5TgRICXTZFPn-XO-64" target="llmvI5TgRICXTZFPn-XO-70">
          <mxGeometry relative="1" as="geometry" />
        </mxCell>
        <mxCell id="llmvI5TgRICXTZFPn-XO-64" value="R3" style="ellipse;whiteSpace=wrap;html=1;fillColor=#fff2cc;strokeColor=#d6b656;strokeWidth=3;" vertex="1" parent="e3ENK_XE-9C9S2tJgyE9-1">
          <mxGeometry x="474" y="570" width="50" height="60" as="geometry" />
        </mxCell>
        <mxCell id="llmvI5TgRICXTZFPn-XO-65" style="edgeStyle=none;rounded=0;orthogonalLoop=1;jettySize=auto;html=1;exitX=1;exitY=0.5;exitDx=0;exitDy=0;entryX=0;entryY=1;entryDx=0;entryDy=0;endArrow=none;endFill=0;fillColor=#fff2cc;strokeColor=#d6b656;" edge="1" parent="e3ENK_XE-9C9S2tJgyE9-1" source="llmvI5TgRICXTZFPn-XO-66" target="llmvI5TgRICXTZFPn-XO-70">
          <mxGeometry relative="1" as="geometry" />
        </mxCell>
        <mxCell id="llmvI5TgRICXTZFPn-XO-66" value="R4" style="ellipse;whiteSpace=wrap;html=1;fillColor=#fff2cc;strokeColor=#d6b656;strokeWidth=3;" vertex="1" parent="e3ENK_XE-9C9S2tJgyE9-1">
          <mxGeometry x="474" y="640" width="50" height="60" as="geometry" />
        </mxCell>
        <mxCell id="llmvI5TgRICXTZFPn-XO-67" style="edgeStyle=none;rounded=0;orthogonalLoop=1;jettySize=auto;html=1;exitX=1;exitY=0.5;exitDx=0;exitDy=0;entryX=0;entryY=0;entryDx=0;entryDy=0;endArrow=none;endFill=0;fillColor=#fff2cc;strokeColor=#d6b656;" edge="1" parent="e3ENK_XE-9C9S2tJgyE9-1" source="llmvI5TgRICXTZFPn-XO-68" target="llmvI5TgRICXTZFPn-XO-72">
          <mxGeometry relative="1" as="geometry" />
        </mxCell>
        <mxCell id="llmvI5TgRICXTZFPn-XO-68" value="R1_2" style="ellipse;whiteSpace=wrap;html=1;fillColor=#fff2cc;strokeWidth=3;strokeColor=#d6b656;" vertex="1" parent="e3ENK_XE-9C9S2tJgyE9-1">
          <mxGeometry x="530" y="460" width="50" height="60" as="geometry" />
        </mxCell>
        <mxCell id="llmvI5TgRICXTZFPn-XO-69" style="edgeStyle=none;rounded=0;orthogonalLoop=1;jettySize=auto;html=1;exitX=1;exitY=0.5;exitDx=0;exitDy=0;entryX=0;entryY=1;entryDx=0;entryDy=0;endArrow=none;endFill=0;fillColor=#fff2cc;strokeColor=#d6b656;" edge="1" parent="e3ENK_XE-9C9S2tJgyE9-1" source="llmvI5TgRICXTZFPn-XO-70" target="llmvI5TgRICXTZFPn-XO-72">
          <mxGeometry relative="1" as="geometry" />
        </mxCell>
        <mxCell id="llmvI5TgRICXTZFPn-XO-70" value="R3_4" style="ellipse;whiteSpace=wrap;html=1;fillColor=#fff2cc;strokeColor=#d6b656;strokeWidth=3;" vertex="1" parent="e3ENK_XE-9C9S2tJgyE9-1">
          <mxGeometry x="530" y="600" width="50" height="60" as="geometry" />
        </mxCell>
        <mxCell id="llmvI5TgRICXTZFPn-XO-71" style="edgeStyle=none;rounded=0;orthogonalLoop=1;jettySize=auto;html=1;exitX=1;exitY=0.5;exitDx=0;exitDy=0;entryX=0.5;entryY=1;entryDx=0;entryDy=0;endArrow=none;endFill=0;fillColor=#fff2cc;strokeColor=#d6b656;" edge="1" parent="e3ENK_XE-9C9S2tJgyE9-1" source="llmvI5TgRICXTZFPn-XO-72" target="llmvI5TgRICXTZFPn-XO-73">
          <mxGeometry relative="1" as="geometry" />
        </mxCell>
        <mxCell id="llmvI5TgRICXTZFPn-XO-72" value="Rm" style="ellipse;whiteSpace=wrap;html=1;fillColor=#fff2cc;strokeWidth=3;strokeColor=#d6b656;" vertex="1" parent="e3ENK_XE-9C9S2tJgyE9-1">
          <mxGeometry x="580" y="530" width="50" height="60" as="geometry" />
        </mxCell>
        <mxCell id="llmvI5TgRICXTZFPn-XO-73" value="M" style="ellipse;whiteSpace=wrap;html=1;fillColor=#fff2cc;strokeWidth=3;strokeColor=#d6b656;" vertex="1" parent="e3ENK_XE-9C9S2tJgyE9-1">
          <mxGeometry x="600" y="240" width="60" height="50" as="geometry" />
        </mxCell>
      </root>
    </mxGraphModel>
  </diagram>
  <diagram id="oiAj9JPLMCojY6zjzUfb" name="Create_2">
    <mxGraphModel dx="2066" dy="1160" grid="1" gridSize="10" guides="1" tooltips="1" connect="1" arrows="1" fold="1" page="1" pageScale="1" pageWidth="827" pageHeight="1169" math="0" shadow="0">
      <root>
        <mxCell id="La78t7hYo1DVKCEwAhs8-0" />
        <mxCell id="La78t7hYo1DVKCEwAhs8-1" parent="La78t7hYo1DVKCEwAhs8-0" />
        <mxCell id="8VrBMt5EAd4pxONDl-iw-0" style="edgeStyle=orthogonalEdgeStyle;rounded=0;orthogonalLoop=1;jettySize=auto;html=1;exitX=1;exitY=0.5;exitDx=0;exitDy=0;entryX=0;entryY=0.5;entryDx=0;entryDy=0;endArrow=none;endFill=0;" edge="1" parent="La78t7hYo1DVKCEwAhs8-1" source="8VrBMt5EAd4pxONDl-iw-2" target="8VrBMt5EAd4pxONDl-iw-5">
          <mxGeometry relative="1" as="geometry" />
        </mxCell>
        <mxCell id="8VrBMt5EAd4pxONDl-iw-1" style="edgeStyle=orthogonalEdgeStyle;rounded=0;orthogonalLoop=1;jettySize=auto;html=1;exitX=0.5;exitY=0;exitDx=0;exitDy=0;entryX=0.5;entryY=1;entryDx=0;entryDy=0;endArrow=none;endFill=0;" edge="1" parent="La78t7hYo1DVKCEwAhs8-1" source="8VrBMt5EAd4pxONDl-iw-2" target="8VrBMt5EAd4pxONDl-iw-46">
          <mxGeometry relative="1" as="geometry" />
        </mxCell>
        <mxCell id="8VrBMt5EAd4pxONDl-iw-2" value="L1" style="rounded=1;whiteSpace=wrap;html=1;fillColor=#fff2cc;strokeColor=#d6b656;strokeWidth=4;" vertex="1" parent="La78t7hYo1DVKCEwAhs8-1">
          <mxGeometry x="170" y="510" width="60" height="60" as="geometry" />
        </mxCell>
        <mxCell id="8VrBMt5EAd4pxONDl-iw-3" style="edgeStyle=orthogonalEdgeStyle;rounded=0;orthogonalLoop=1;jettySize=auto;html=1;exitX=1;exitY=0.5;exitDx=0;exitDy=0;entryX=0;entryY=0.5;entryDx=0;entryDy=0;endArrow=none;endFill=0;" edge="1" parent="La78t7hYo1DVKCEwAhs8-1" source="8VrBMt5EAd4pxONDl-iw-5" target="8VrBMt5EAd4pxONDl-iw-8">
          <mxGeometry relative="1" as="geometry" />
        </mxCell>
        <mxCell id="8VrBMt5EAd4pxONDl-iw-4" style="edgeStyle=orthogonalEdgeStyle;rounded=0;orthogonalLoop=1;jettySize=auto;html=1;exitX=0.5;exitY=0;exitDx=0;exitDy=0;entryX=0.5;entryY=1;entryDx=0;entryDy=0;endArrow=none;endFill=0;" edge="1" parent="La78t7hYo1DVKCEwAhs8-1" source="8VrBMt5EAd4pxONDl-iw-5" target="8VrBMt5EAd4pxONDl-iw-48">
          <mxGeometry relative="1" as="geometry" />
        </mxCell>
        <mxCell id="8VrBMt5EAd4pxONDl-iw-5" value="L2" style="rounded=1;whiteSpace=wrap;html=1;fillColor=#fff2cc;strokeColor=#d6b656;strokeWidth=4;" vertex="1" parent="La78t7hYo1DVKCEwAhs8-1">
          <mxGeometry x="240" y="510" width="60" height="60" as="geometry" />
        </mxCell>
        <mxCell id="8VrBMt5EAd4pxONDl-iw-6" style="edgeStyle=orthogonalEdgeStyle;rounded=0;orthogonalLoop=1;jettySize=auto;html=1;exitX=1;exitY=0.5;exitDx=0;exitDy=0;entryX=0;entryY=0.5;entryDx=0;entryDy=0;endArrow=none;endFill=0;" edge="1" parent="La78t7hYo1DVKCEwAhs8-1" source="8VrBMt5EAd4pxONDl-iw-8" target="8VrBMt5EAd4pxONDl-iw-11">
          <mxGeometry relative="1" as="geometry" />
        </mxCell>
        <mxCell id="8VrBMt5EAd4pxONDl-iw-7" style="edgeStyle=orthogonalEdgeStyle;rounded=0;orthogonalLoop=1;jettySize=auto;html=1;exitX=0.5;exitY=0;exitDx=0;exitDy=0;entryX=0.5;entryY=1;entryDx=0;entryDy=0;endArrow=none;endFill=0;" edge="1" parent="La78t7hYo1DVKCEwAhs8-1" source="8VrBMt5EAd4pxONDl-iw-8" target="8VrBMt5EAd4pxONDl-iw-50">
          <mxGeometry relative="1" as="geometry" />
        </mxCell>
        <mxCell id="8VrBMt5EAd4pxONDl-iw-8" value="L3" style="rounded=1;whiteSpace=wrap;html=1;fillColor=#fff2cc;strokeColor=#d6b656;strokeWidth=4;" vertex="1" parent="La78t7hYo1DVKCEwAhs8-1">
          <mxGeometry x="310" y="510" width="60" height="60" as="geometry" />
        </mxCell>
        <mxCell id="8VrBMt5EAd4pxONDl-iw-9" style="edgeStyle=orthogonalEdgeStyle;rounded=0;orthogonalLoop=1;jettySize=auto;html=1;exitX=1;exitY=0.5;exitDx=0;exitDy=0;entryX=0;entryY=0.5;entryDx=0;entryDy=0;endArrow=none;endFill=0;" edge="1" parent="La78t7hYo1DVKCEwAhs8-1" source="8VrBMt5EAd4pxONDl-iw-11" target="8VrBMt5EAd4pxONDl-iw-60">
          <mxGeometry relative="1" as="geometry" />
        </mxCell>
        <mxCell id="8VrBMt5EAd4pxONDl-iw-10" style="edgeStyle=orthogonalEdgeStyle;rounded=0;orthogonalLoop=1;jettySize=auto;html=1;exitX=0.5;exitY=0;exitDx=0;exitDy=0;entryX=0.5;entryY=1;entryDx=0;entryDy=0;endArrow=none;endFill=0;" edge="1" parent="La78t7hYo1DVKCEwAhs8-1" source="8VrBMt5EAd4pxONDl-iw-11" target="8VrBMt5EAd4pxONDl-iw-52">
          <mxGeometry relative="1" as="geometry" />
        </mxCell>
        <mxCell id="8VrBMt5EAd4pxONDl-iw-11" value="L4" style="rounded=1;whiteSpace=wrap;html=1;fillColor=#fff2cc;strokeColor=#d6b656;strokeWidth=4;" vertex="1" parent="La78t7hYo1DVKCEwAhs8-1">
          <mxGeometry x="380" y="510" width="60" height="60" as="geometry" />
        </mxCell>
        <mxCell id="8VrBMt5EAd4pxONDl-iw-12" style="edgeStyle=orthogonalEdgeStyle;rounded=0;orthogonalLoop=1;jettySize=auto;html=1;exitX=0.5;exitY=0;exitDx=0;exitDy=0;entryX=0.5;entryY=1;entryDx=0;entryDy=0;endArrow=none;endFill=0;" edge="1" parent="La78t7hYo1DVKCEwAhs8-1" source="8VrBMt5EAd4pxONDl-iw-14" target="8VrBMt5EAd4pxONDl-iw-2">
          <mxGeometry relative="1" as="geometry" />
        </mxCell>
        <mxCell id="8VrBMt5EAd4pxONDl-iw-13" style="edgeStyle=orthogonalEdgeStyle;rounded=0;orthogonalLoop=1;jettySize=auto;html=1;exitX=1;exitY=0.5;exitDx=0;exitDy=0;entryX=0;entryY=0.5;entryDx=0;entryDy=0;endArrow=none;endFill=0;" edge="1" parent="La78t7hYo1DVKCEwAhs8-1" source="8VrBMt5EAd4pxONDl-iw-14" target="8VrBMt5EAd4pxONDl-iw-17">
          <mxGeometry relative="1" as="geometry" />
        </mxCell>
        <mxCell id="8VrBMt5EAd4pxONDl-iw-14" value="L5" style="rounded=1;whiteSpace=wrap;html=1;fillColor=#fff2cc;strokeColor=#d6b656;strokeWidth=4;" vertex="1" parent="La78t7hYo1DVKCEwAhs8-1">
          <mxGeometry x="170" y="580" width="60" height="60" as="geometry" />
        </mxCell>
        <mxCell id="8VrBMt5EAd4pxONDl-iw-15" style="edgeStyle=orthogonalEdgeStyle;rounded=0;orthogonalLoop=1;jettySize=auto;html=1;exitX=0.5;exitY=0;exitDx=0;exitDy=0;entryX=0.5;entryY=1;entryDx=0;entryDy=0;endArrow=none;endFill=0;" edge="1" parent="La78t7hYo1DVKCEwAhs8-1" source="8VrBMt5EAd4pxONDl-iw-17" target="8VrBMt5EAd4pxONDl-iw-5">
          <mxGeometry relative="1" as="geometry" />
        </mxCell>
        <mxCell id="8VrBMt5EAd4pxONDl-iw-16" style="edgeStyle=orthogonalEdgeStyle;rounded=0;orthogonalLoop=1;jettySize=auto;html=1;exitX=1;exitY=0.5;exitDx=0;exitDy=0;entryX=0;entryY=0.5;entryDx=0;entryDy=0;endArrow=none;endFill=0;" edge="1" parent="La78t7hYo1DVKCEwAhs8-1" source="8VrBMt5EAd4pxONDl-iw-17" target="8VrBMt5EAd4pxONDl-iw-20">
          <mxGeometry relative="1" as="geometry" />
        </mxCell>
        <mxCell id="8VrBMt5EAd4pxONDl-iw-17" value="L6" style="rounded=1;whiteSpace=wrap;html=1;fillColor=#fff2cc;strokeWidth=4;strokeColor=#d6b656;" vertex="1" parent="La78t7hYo1DVKCEwAhs8-1">
          <mxGeometry x="240" y="580" width="60" height="60" as="geometry" />
        </mxCell>
        <mxCell id="8VrBMt5EAd4pxONDl-iw-18" style="edgeStyle=orthogonalEdgeStyle;rounded=0;orthogonalLoop=1;jettySize=auto;html=1;exitX=0.5;exitY=0;exitDx=0;exitDy=0;entryX=0.5;entryY=1;entryDx=0;entryDy=0;endArrow=none;endFill=0;" edge="1" parent="La78t7hYo1DVKCEwAhs8-1" source="8VrBMt5EAd4pxONDl-iw-20" target="8VrBMt5EAd4pxONDl-iw-8">
          <mxGeometry relative="1" as="geometry" />
        </mxCell>
        <mxCell id="8VrBMt5EAd4pxONDl-iw-19" style="edgeStyle=orthogonalEdgeStyle;rounded=0;orthogonalLoop=1;jettySize=auto;html=1;exitX=1;exitY=0.5;exitDx=0;exitDy=0;entryX=0;entryY=0.5;entryDx=0;entryDy=0;endArrow=none;endFill=0;" edge="1" parent="La78t7hYo1DVKCEwAhs8-1" source="8VrBMt5EAd4pxONDl-iw-20" target="8VrBMt5EAd4pxONDl-iw-23">
          <mxGeometry relative="1" as="geometry" />
        </mxCell>
        <mxCell id="8VrBMt5EAd4pxONDl-iw-20" value="L7" style="rounded=1;whiteSpace=wrap;html=1;fillColor=#fff2cc;strokeColor=#d6b656;strokeWidth=4;" vertex="1" parent="La78t7hYo1DVKCEwAhs8-1">
          <mxGeometry x="310" y="580" width="60" height="60" as="geometry" />
        </mxCell>
        <mxCell id="8VrBMt5EAd4pxONDl-iw-21" style="edgeStyle=orthogonalEdgeStyle;rounded=0;orthogonalLoop=1;jettySize=auto;html=1;exitX=0.5;exitY=0;exitDx=0;exitDy=0;entryX=0.5;entryY=1;entryDx=0;entryDy=0;endArrow=none;endFill=0;" edge="1" parent="La78t7hYo1DVKCEwAhs8-1" source="8VrBMt5EAd4pxONDl-iw-23" target="8VrBMt5EAd4pxONDl-iw-11">
          <mxGeometry relative="1" as="geometry" />
        </mxCell>
        <mxCell id="8VrBMt5EAd4pxONDl-iw-22" style="edgeStyle=orthogonalEdgeStyle;rounded=0;orthogonalLoop=1;jettySize=auto;html=1;exitX=1;exitY=0.5;exitDx=0;exitDy=0;entryX=0;entryY=0.5;entryDx=0;entryDy=0;endArrow=none;endFill=0;" edge="1" parent="La78t7hYo1DVKCEwAhs8-1" source="8VrBMt5EAd4pxONDl-iw-23" target="8VrBMt5EAd4pxONDl-iw-62">
          <mxGeometry relative="1" as="geometry" />
        </mxCell>
        <mxCell id="8VrBMt5EAd4pxONDl-iw-23" value="L8" style="rounded=1;whiteSpace=wrap;html=1;fillColor=#fff2cc;strokeColor=#d6b656;strokeWidth=4;" vertex="1" parent="La78t7hYo1DVKCEwAhs8-1">
          <mxGeometry x="380" y="580" width="60" height="60" as="geometry" />
        </mxCell>
        <mxCell id="8VrBMt5EAd4pxONDl-iw-24" style="edgeStyle=orthogonalEdgeStyle;rounded=0;orthogonalLoop=1;jettySize=auto;html=1;exitX=0.5;exitY=0;exitDx=0;exitDy=0;entryX=0.5;entryY=1;entryDx=0;entryDy=0;endArrow=none;endFill=0;" edge="1" parent="La78t7hYo1DVKCEwAhs8-1" source="8VrBMt5EAd4pxONDl-iw-25" target="8VrBMt5EAd4pxONDl-iw-14">
          <mxGeometry relative="1" as="geometry" />
        </mxCell>
        <mxCell id="8VrBMt5EAd4pxONDl-iw-25" value="L9" style="rounded=1;whiteSpace=wrap;html=1;fillColor=#fff2cc;strokeWidth=4;strokeColor=#FF3333;" vertex="1" parent="La78t7hYo1DVKCEwAhs8-1">
          <mxGeometry x="170" y="650" width="60" height="60" as="geometry" />
        </mxCell>
        <mxCell id="8VrBMt5EAd4pxONDl-iw-26" style="edgeStyle=orthogonalEdgeStyle;rounded=0;orthogonalLoop=1;jettySize=auto;html=1;exitX=0.5;exitY=0;exitDx=0;exitDy=0;entryX=0.5;entryY=1;entryDx=0;entryDy=0;endArrow=none;endFill=0;" edge="1" parent="La78t7hYo1DVKCEwAhs8-1" source="8VrBMt5EAd4pxONDl-iw-27" target="8VrBMt5EAd4pxONDl-iw-17">
          <mxGeometry relative="1" as="geometry" />
        </mxCell>
        <mxCell id="8VrBMt5EAd4pxONDl-iw-27" value="L10" style="rounded=1;whiteSpace=wrap;html=1;fillColor=#fff2cc;strokeColor=#d6b656;strokeWidth=4;" vertex="1" parent="La78t7hYo1DVKCEwAhs8-1">
          <mxGeometry x="240" y="650" width="60" height="60" as="geometry" />
        </mxCell>
        <mxCell id="8VrBMt5EAd4pxONDl-iw-28" style="edgeStyle=orthogonalEdgeStyle;rounded=0;orthogonalLoop=1;jettySize=auto;html=1;exitX=0.5;exitY=0;exitDx=0;exitDy=0;entryX=0.5;entryY=1;entryDx=0;entryDy=0;endArrow=none;endFill=0;" edge="1" parent="La78t7hYo1DVKCEwAhs8-1" source="8VrBMt5EAd4pxONDl-iw-29" target="8VrBMt5EAd4pxONDl-iw-20">
          <mxGeometry relative="1" as="geometry" />
        </mxCell>
        <mxCell id="8VrBMt5EAd4pxONDl-iw-29" value="L11" style="rounded=1;whiteSpace=wrap;html=1;fillColor=#fff2cc;strokeColor=#d6b656;strokeWidth=4;" vertex="1" parent="La78t7hYo1DVKCEwAhs8-1">
          <mxGeometry x="310" y="650" width="60" height="60" as="geometry" />
        </mxCell>
        <mxCell id="8VrBMt5EAd4pxONDl-iw-30" style="edgeStyle=orthogonalEdgeStyle;rounded=0;orthogonalLoop=1;jettySize=auto;html=1;exitX=0.5;exitY=0;exitDx=0;exitDy=0;entryX=0.5;entryY=1;entryDx=0;entryDy=0;endArrow=none;endFill=0;" edge="1" parent="La78t7hYo1DVKCEwAhs8-1" source="8VrBMt5EAd4pxONDl-iw-32" target="8VrBMt5EAd4pxONDl-iw-23">
          <mxGeometry relative="1" as="geometry" />
        </mxCell>
        <mxCell id="8VrBMt5EAd4pxONDl-iw-31" style="edgeStyle=orthogonalEdgeStyle;rounded=0;orthogonalLoop=1;jettySize=auto;html=1;exitX=1;exitY=0.5;exitDx=0;exitDy=0;entryX=0;entryY=0.5;entryDx=0;entryDy=0;endArrow=none;endFill=0;" edge="1" parent="La78t7hYo1DVKCEwAhs8-1" source="8VrBMt5EAd4pxONDl-iw-32" target="8VrBMt5EAd4pxONDl-iw-64">
          <mxGeometry relative="1" as="geometry" />
        </mxCell>
        <mxCell id="8VrBMt5EAd4pxONDl-iw-32" value="L12" style="rounded=1;whiteSpace=wrap;html=1;fillColor=#fff2cc;strokeColor=#d6b656;strokeWidth=4;" vertex="1" parent="La78t7hYo1DVKCEwAhs8-1">
          <mxGeometry x="380" y="650" width="60" height="60" as="geometry" />
        </mxCell>
        <mxCell id="8VrBMt5EAd4pxONDl-iw-33" style="edgeStyle=orthogonalEdgeStyle;rounded=0;orthogonalLoop=1;jettySize=auto;html=1;exitX=0.5;exitY=0;exitDx=0;exitDy=0;entryX=0.5;entryY=1;entryDx=0;entryDy=0;endArrow=none;endFill=0;" edge="1" parent="La78t7hYo1DVKCEwAhs8-1" source="8VrBMt5EAd4pxONDl-iw-35" target="8VrBMt5EAd4pxONDl-iw-25">
          <mxGeometry relative="1" as="geometry" />
        </mxCell>
        <mxCell id="8VrBMt5EAd4pxONDl-iw-34" style="edgeStyle=orthogonalEdgeStyle;rounded=0;orthogonalLoop=1;jettySize=auto;html=1;exitX=1;exitY=0.5;exitDx=0;exitDy=0;entryX=0;entryY=0.5;entryDx=0;entryDy=0;endArrow=none;endFill=0;" edge="1" parent="La78t7hYo1DVKCEwAhs8-1" source="8VrBMt5EAd4pxONDl-iw-35" target="8VrBMt5EAd4pxONDl-iw-38">
          <mxGeometry relative="1" as="geometry" />
        </mxCell>
        <mxCell id="8VrBMt5EAd4pxONDl-iw-35" value="L13" style="rounded=1;whiteSpace=wrap;html=1;fillColor=#fff2cc;strokeColor=#d6b656;strokeWidth=4;" vertex="1" parent="La78t7hYo1DVKCEwAhs8-1">
          <mxGeometry x="170" y="720" width="60" height="60" as="geometry" />
        </mxCell>
        <mxCell id="8VrBMt5EAd4pxONDl-iw-36" style="edgeStyle=orthogonalEdgeStyle;rounded=0;orthogonalLoop=1;jettySize=auto;html=1;exitX=0.5;exitY=0;exitDx=0;exitDy=0;entryX=0.5;entryY=1;entryDx=0;entryDy=0;endArrow=none;endFill=0;" edge="1" parent="La78t7hYo1DVKCEwAhs8-1" source="8VrBMt5EAd4pxONDl-iw-38" target="8VrBMt5EAd4pxONDl-iw-27">
          <mxGeometry relative="1" as="geometry" />
        </mxCell>
        <mxCell id="8VrBMt5EAd4pxONDl-iw-37" style="edgeStyle=orthogonalEdgeStyle;rounded=0;orthogonalLoop=1;jettySize=auto;html=1;exitX=1;exitY=0.5;exitDx=0;exitDy=0;entryX=0;entryY=0.5;entryDx=0;entryDy=0;endArrow=none;endFill=0;" edge="1" parent="La78t7hYo1DVKCEwAhs8-1" source="8VrBMt5EAd4pxONDl-iw-38" target="8VrBMt5EAd4pxONDl-iw-41">
          <mxGeometry relative="1" as="geometry" />
        </mxCell>
        <mxCell id="8VrBMt5EAd4pxONDl-iw-38" value="L14" style="rounded=1;whiteSpace=wrap;html=1;fillColor=#fff2cc;strokeWidth=4;strokeColor=#d6b656;" vertex="1" parent="La78t7hYo1DVKCEwAhs8-1">
          <mxGeometry x="240" y="720" width="60" height="60" as="geometry" />
        </mxCell>
        <mxCell id="8VrBMt5EAd4pxONDl-iw-39" style="edgeStyle=orthogonalEdgeStyle;rounded=0;orthogonalLoop=1;jettySize=auto;html=1;exitX=0.5;exitY=0;exitDx=0;exitDy=0;entryX=0.5;entryY=1;entryDx=0;entryDy=0;endArrow=none;endFill=0;" edge="1" parent="La78t7hYo1DVKCEwAhs8-1" source="8VrBMt5EAd4pxONDl-iw-41" target="8VrBMt5EAd4pxONDl-iw-29">
          <mxGeometry relative="1" as="geometry" />
        </mxCell>
        <mxCell id="8VrBMt5EAd4pxONDl-iw-40" style="edgeStyle=orthogonalEdgeStyle;rounded=0;orthogonalLoop=1;jettySize=auto;html=1;exitX=1;exitY=0.5;exitDx=0;exitDy=0;entryX=0;entryY=0.5;entryDx=0;entryDy=0;endArrow=none;endFill=0;" edge="1" parent="La78t7hYo1DVKCEwAhs8-1" source="8VrBMt5EAd4pxONDl-iw-41" target="8VrBMt5EAd4pxONDl-iw-44">
          <mxGeometry relative="1" as="geometry" />
        </mxCell>
        <mxCell id="8VrBMt5EAd4pxONDl-iw-41" value="L15" style="rounded=1;whiteSpace=wrap;html=1;fillColor=#fff2cc;strokeColor=#d6b656;strokeWidth=4;" vertex="1" parent="La78t7hYo1DVKCEwAhs8-1">
          <mxGeometry x="310" y="720" width="60" height="60" as="geometry" />
        </mxCell>
        <mxCell id="8VrBMt5EAd4pxONDl-iw-42" style="edgeStyle=orthogonalEdgeStyle;rounded=0;orthogonalLoop=1;jettySize=auto;html=1;exitX=0.5;exitY=0;exitDx=0;exitDy=0;entryX=0.5;entryY=1;entryDx=0;entryDy=0;endArrow=none;endFill=0;" edge="1" parent="La78t7hYo1DVKCEwAhs8-1" source="8VrBMt5EAd4pxONDl-iw-44" target="8VrBMt5EAd4pxONDl-iw-32">
          <mxGeometry relative="1" as="geometry" />
        </mxCell>
        <mxCell id="8VrBMt5EAd4pxONDl-iw-43" style="edgeStyle=orthogonalEdgeStyle;rounded=0;orthogonalLoop=1;jettySize=auto;html=1;exitX=1;exitY=0.5;exitDx=0;exitDy=0;entryX=0;entryY=0.5;entryDx=0;entryDy=0;endArrow=none;endFill=0;" edge="1" parent="La78t7hYo1DVKCEwAhs8-1" source="8VrBMt5EAd4pxONDl-iw-44" target="8VrBMt5EAd4pxONDl-iw-66">
          <mxGeometry relative="1" as="geometry" />
        </mxCell>
        <mxCell id="8VrBMt5EAd4pxONDl-iw-44" value="N" style="rounded=1;whiteSpace=wrap;html=1;fillColor=#fff2cc;strokeColor=#d6b656;strokeWidth=4;" vertex="1" parent="La78t7hYo1DVKCEwAhs8-1">
          <mxGeometry x="380" y="720" width="60" height="60" as="geometry" />
        </mxCell>
        <mxCell id="8VrBMt5EAd4pxONDl-iw-45" style="rounded=0;orthogonalLoop=1;jettySize=auto;html=1;exitX=0.5;exitY=0;exitDx=0;exitDy=0;entryX=0;entryY=1;entryDx=0;entryDy=0;endArrow=none;endFill=0;" edge="1" parent="La78t7hYo1DVKCEwAhs8-1" source="8VrBMt5EAd4pxONDl-iw-46" target="8VrBMt5EAd4pxONDl-iw-54">
          <mxGeometry relative="1" as="geometry" />
        </mxCell>
        <mxCell id="8VrBMt5EAd4pxONDl-iw-46" value="C1" style="ellipse;whiteSpace=wrap;html=1;fillColor=#fff2cc;strokeWidth=3;strokeColor=#FF3333;" vertex="1" parent="La78t7hYo1DVKCEwAhs8-1">
          <mxGeometry x="170" y="450" width="60" height="50" as="geometry" />
        </mxCell>
        <mxCell id="8VrBMt5EAd4pxONDl-iw-47" style="edgeStyle=none;rounded=0;orthogonalLoop=1;jettySize=auto;html=1;exitX=0.5;exitY=0;exitDx=0;exitDy=0;entryX=1;entryY=1;entryDx=0;entryDy=0;endArrow=none;endFill=0;" edge="1" parent="La78t7hYo1DVKCEwAhs8-1" source="8VrBMt5EAd4pxONDl-iw-48" target="8VrBMt5EAd4pxONDl-iw-54">
          <mxGeometry relative="1" as="geometry" />
        </mxCell>
        <mxCell id="8VrBMt5EAd4pxONDl-iw-48" value="C2" style="ellipse;whiteSpace=wrap;html=1;fillColor=#fff2cc;strokeWidth=3;strokeColor=#FF3333;" vertex="1" parent="La78t7hYo1DVKCEwAhs8-1">
          <mxGeometry x="240" y="450" width="60" height="50" as="geometry" />
        </mxCell>
        <mxCell id="8VrBMt5EAd4pxONDl-iw-49" style="edgeStyle=none;rounded=0;orthogonalLoop=1;jettySize=auto;html=1;exitX=0.5;exitY=0;exitDx=0;exitDy=0;entryX=0;entryY=1;entryDx=0;entryDy=0;endArrow=none;endFill=0;" edge="1" parent="La78t7hYo1DVKCEwAhs8-1" source="8VrBMt5EAd4pxONDl-iw-50" target="8VrBMt5EAd4pxONDl-iw-56">
          <mxGeometry relative="1" as="geometry" />
        </mxCell>
        <mxCell id="8VrBMt5EAd4pxONDl-iw-50" value="C3" style="ellipse;whiteSpace=wrap;html=1;fillColor=#fff2cc;strokeWidth=3;strokeColor=#FF3333;" vertex="1" parent="La78t7hYo1DVKCEwAhs8-1">
          <mxGeometry x="310" y="450" width="60" height="50" as="geometry" />
        </mxCell>
        <mxCell id="8VrBMt5EAd4pxONDl-iw-51" style="edgeStyle=none;rounded=0;orthogonalLoop=1;jettySize=auto;html=1;exitX=0.5;exitY=0;exitDx=0;exitDy=0;entryX=1;entryY=1;entryDx=0;entryDy=0;endArrow=none;endFill=0;" edge="1" parent="La78t7hYo1DVKCEwAhs8-1" source="8VrBMt5EAd4pxONDl-iw-52" target="8VrBMt5EAd4pxONDl-iw-56">
          <mxGeometry relative="1" as="geometry" />
        </mxCell>
        <mxCell id="8VrBMt5EAd4pxONDl-iw-52" value="C4" style="ellipse;whiteSpace=wrap;html=1;fillColor=#fff2cc;strokeWidth=3;strokeColor=#FF3333;" vertex="1" parent="La78t7hYo1DVKCEwAhs8-1">
          <mxGeometry x="380" y="450" width="60" height="50" as="geometry" />
        </mxCell>
        <mxCell id="8VrBMt5EAd4pxONDl-iw-53" style="edgeStyle=none;rounded=0;orthogonalLoop=1;jettySize=auto;html=1;exitX=0.5;exitY=0;exitDx=0;exitDy=0;entryX=0;entryY=1;entryDx=0;entryDy=0;endArrow=none;endFill=0;" edge="1" parent="La78t7hYo1DVKCEwAhs8-1" source="8VrBMt5EAd4pxONDl-iw-54" target="8VrBMt5EAd4pxONDl-iw-58">
          <mxGeometry relative="1" as="geometry" />
        </mxCell>
        <mxCell id="8VrBMt5EAd4pxONDl-iw-54" value="C1_2" style="ellipse;whiteSpace=wrap;html=1;fillColor=#fff2cc;strokeWidth=3;strokeColor=#FF3333;" vertex="1" parent="La78t7hYo1DVKCEwAhs8-1">
          <mxGeometry x="200" y="390" width="60" height="50" as="geometry" />
        </mxCell>
        <mxCell id="8VrBMt5EAd4pxONDl-iw-55" style="edgeStyle=none;rounded=0;orthogonalLoop=1;jettySize=auto;html=1;exitX=0.5;exitY=0;exitDx=0;exitDy=0;entryX=1;entryY=1;entryDx=0;entryDy=0;endArrow=none;endFill=0;" edge="1" parent="La78t7hYo1DVKCEwAhs8-1" source="8VrBMt5EAd4pxONDl-iw-56" target="8VrBMt5EAd4pxONDl-iw-58">
          <mxGeometry relative="1" as="geometry" />
        </mxCell>
        <mxCell id="8VrBMt5EAd4pxONDl-iw-56" value="C3_4" style="ellipse;whiteSpace=wrap;html=1;fillColor=#fff2cc;strokeWidth=3;strokeColor=#FF3333;" vertex="1" parent="La78t7hYo1DVKCEwAhs8-1">
          <mxGeometry x="340" y="390" width="60" height="50" as="geometry" />
        </mxCell>
        <mxCell id="8VrBMt5EAd4pxONDl-iw-57" style="edgeStyle=none;rounded=0;orthogonalLoop=1;jettySize=auto;html=1;exitX=0.5;exitY=0;exitDx=0;exitDy=0;entryX=0;entryY=0.5;entryDx=0;entryDy=0;endArrow=none;endFill=0;" edge="1" parent="La78t7hYo1DVKCEwAhs8-1" source="8VrBMt5EAd4pxONDl-iw-58" target="8VrBMt5EAd4pxONDl-iw-73">
          <mxGeometry relative="1" as="geometry" />
        </mxCell>
        <mxCell id="8VrBMt5EAd4pxONDl-iw-58" value="Cm" style="ellipse;whiteSpace=wrap;html=1;fillColor=#fff2cc;strokeWidth=3;strokeColor=#FF3333;" vertex="1" parent="La78t7hYo1DVKCEwAhs8-1">
          <mxGeometry x="270" y="340" width="60" height="50" as="geometry" />
        </mxCell>
        <mxCell id="8VrBMt5EAd4pxONDl-iw-59" style="edgeStyle=none;rounded=0;orthogonalLoop=1;jettySize=auto;html=1;exitX=1;exitY=0.5;exitDx=0;exitDy=0;entryX=0;entryY=0;entryDx=0;entryDy=0;endArrow=none;endFill=0;" edge="1" parent="La78t7hYo1DVKCEwAhs8-1" source="8VrBMt5EAd4pxONDl-iw-60" target="8VrBMt5EAd4pxONDl-iw-68">
          <mxGeometry relative="1" as="geometry" />
        </mxCell>
        <mxCell id="8VrBMt5EAd4pxONDl-iw-60" value="R1" style="ellipse;whiteSpace=wrap;html=1;fillColor=#fff2cc;strokeColor=#d6b656;strokeWidth=3;" vertex="1" parent="La78t7hYo1DVKCEwAhs8-1">
          <mxGeometry x="453.5" y="510" width="50" height="60" as="geometry" />
        </mxCell>
        <mxCell id="8VrBMt5EAd4pxONDl-iw-61" style="edgeStyle=none;rounded=0;orthogonalLoop=1;jettySize=auto;html=1;exitX=1;exitY=0.5;exitDx=0;exitDy=0;entryX=0;entryY=1;entryDx=0;entryDy=0;endArrow=none;endFill=0;" edge="1" parent="La78t7hYo1DVKCEwAhs8-1" source="8VrBMt5EAd4pxONDl-iw-62" target="8VrBMt5EAd4pxONDl-iw-68">
          <mxGeometry relative="1" as="geometry" />
        </mxCell>
        <mxCell id="8VrBMt5EAd4pxONDl-iw-62" value="R2" style="ellipse;whiteSpace=wrap;html=1;fillColor=#fff2cc;strokeWidth=3;strokeColor=#d6b656;" vertex="1" parent="La78t7hYo1DVKCEwAhs8-1">
          <mxGeometry x="453.5" y="580" width="50" height="60" as="geometry" />
        </mxCell>
        <mxCell id="8VrBMt5EAd4pxONDl-iw-63" style="edgeStyle=none;rounded=0;orthogonalLoop=1;jettySize=auto;html=1;exitX=1;exitY=0.5;exitDx=0;exitDy=0;entryX=0;entryY=0;entryDx=0;entryDy=0;endArrow=none;endFill=0;" edge="1" parent="La78t7hYo1DVKCEwAhs8-1" source="8VrBMt5EAd4pxONDl-iw-64" target="8VrBMt5EAd4pxONDl-iw-70">
          <mxGeometry relative="1" as="geometry" />
        </mxCell>
        <mxCell id="8VrBMt5EAd4pxONDl-iw-64" value="R3" style="ellipse;whiteSpace=wrap;html=1;fillColor=#fff2cc;strokeWidth=3;strokeColor=#FF3333;" vertex="1" parent="La78t7hYo1DVKCEwAhs8-1">
          <mxGeometry x="454" y="650" width="50" height="60" as="geometry" />
        </mxCell>
        <mxCell id="8VrBMt5EAd4pxONDl-iw-65" style="edgeStyle=none;rounded=0;orthogonalLoop=1;jettySize=auto;html=1;exitX=1;exitY=0.5;exitDx=0;exitDy=0;entryX=0;entryY=1;entryDx=0;entryDy=0;endArrow=none;endFill=0;" edge="1" parent="La78t7hYo1DVKCEwAhs8-1" source="8VrBMt5EAd4pxONDl-iw-66" target="8VrBMt5EAd4pxONDl-iw-70">
          <mxGeometry relative="1" as="geometry" />
        </mxCell>
        <mxCell id="8VrBMt5EAd4pxONDl-iw-66" value="R4" style="ellipse;whiteSpace=wrap;html=1;fillColor=#fff2cc;strokeWidth=3;strokeColor=#FF3333;" vertex="1" parent="La78t7hYo1DVKCEwAhs8-1">
          <mxGeometry x="454" y="720" width="50" height="60" as="geometry" />
        </mxCell>
        <mxCell id="8VrBMt5EAd4pxONDl-iw-67" style="edgeStyle=none;rounded=0;orthogonalLoop=1;jettySize=auto;html=1;exitX=1;exitY=0.5;exitDx=0;exitDy=0;entryX=0;entryY=0;entryDx=0;entryDy=0;endArrow=none;endFill=0;" edge="1" parent="La78t7hYo1DVKCEwAhs8-1" source="8VrBMt5EAd4pxONDl-iw-68" target="8VrBMt5EAd4pxONDl-iw-72">
          <mxGeometry relative="1" as="geometry" />
        </mxCell>
        <mxCell id="8VrBMt5EAd4pxONDl-iw-68" value="R1_2" style="ellipse;whiteSpace=wrap;html=1;fillColor=#fff2cc;strokeWidth=3;strokeColor=#d6b656;" vertex="1" parent="La78t7hYo1DVKCEwAhs8-1">
          <mxGeometry x="510" y="540" width="50" height="60" as="geometry" />
        </mxCell>
        <mxCell id="8VrBMt5EAd4pxONDl-iw-69" style="edgeStyle=none;rounded=0;orthogonalLoop=1;jettySize=auto;html=1;exitX=1;exitY=0.5;exitDx=0;exitDy=0;entryX=0;entryY=1;entryDx=0;entryDy=0;endArrow=none;endFill=0;" edge="1" parent="La78t7hYo1DVKCEwAhs8-1" source="8VrBMt5EAd4pxONDl-iw-70" target="8VrBMt5EAd4pxONDl-iw-72">
          <mxGeometry relative="1" as="geometry" />
        </mxCell>
        <mxCell id="8VrBMt5EAd4pxONDl-iw-70" value="R3_4" style="ellipse;whiteSpace=wrap;html=1;fillColor=#fff2cc;strokeWidth=3;strokeColor=#FF3333;" vertex="1" parent="La78t7hYo1DVKCEwAhs8-1">
          <mxGeometry x="510" y="680" width="50" height="60" as="geometry" />
        </mxCell>
        <mxCell id="8VrBMt5EAd4pxONDl-iw-71" style="edgeStyle=none;rounded=0;orthogonalLoop=1;jettySize=auto;html=1;exitX=1;exitY=0.5;exitDx=0;exitDy=0;entryX=0.5;entryY=1;entryDx=0;entryDy=0;endArrow=none;endFill=0;" edge="1" parent="La78t7hYo1DVKCEwAhs8-1" source="8VrBMt5EAd4pxONDl-iw-72" target="8VrBMt5EAd4pxONDl-iw-73">
          <mxGeometry relative="1" as="geometry" />
        </mxCell>
        <mxCell id="8VrBMt5EAd4pxONDl-iw-72" value="Rm" style="ellipse;whiteSpace=wrap;html=1;fillColor=#fff2cc;strokeWidth=3;strokeColor=#FF3333;" vertex="1" parent="La78t7hYo1DVKCEwAhs8-1">
          <mxGeometry x="560" y="610" width="50" height="60" as="geometry" />
        </mxCell>
        <mxCell id="8VrBMt5EAd4pxONDl-iw-73" value="M" style="ellipse;whiteSpace=wrap;html=1;fillColor=#fff2cc;strokeWidth=3;strokeColor=#FF3333;" vertex="1" parent="La78t7hYo1DVKCEwAhs8-1">
          <mxGeometry x="580" y="320" width="60" height="50" as="geometry" />
        </mxCell>
      </root>
    </mxGraphModel>
  </diagram>
</mxfile>
